<svg id="Layer_1" data-name="Layer 1" xmlns="http://www.w3.org/2000/svg" viewBox="0 0 3000 2000"><defs><style>.cls-1{fill:#fff;}.cls-2{fill:#ebf2f9;}.cls-3{fill:#163560;}.cls-4{fill:#e49963;}.cls-5{fill:#4a75cb;}.cls-6{fill:#a6c7f9;}.cls-7{fill:#e58638;}.cls-8{fill:#ee9849;}.cls-9{fill:#1c468a;}.cls-10{fill:#739af0;}.cls-11{fill:#d68d5d;}.cls-12{fill:#2b478b;}.cls-13{fill:#d2e4ff;}.cls-14{fill:#f3f9ff;}.cls-15{fill:#82b378;}.cls-16{fill:#202f4e;}</style></defs><rect class="cls-1" width="3000" height="2000"/><path class="cls-2" d="M2373.73,878.76c-97.86-83.48-215.84-586.9-620-324.7-208.8,135.46-560.9-116.3-852.33-29.34C633.77,604.58,608,867.7,633.87,953.43c52.31,173.19-110.48,199-261.49,273.37C135.5,1343.52,311.05,1758.07,534.83,1760s1577.75,0,1577.75,0,325.47-7.43,460.66-186.86C2718.72,1380.09,2626.5,1094.38,2373.73,878.76Z"/><path class="cls-3" d="M1043.09,1713.58s2.83,45.71,11.68,46.37c1.18.08,44.86.08,44.86.08l55.76-.32s-.37-13.43-16.67-16.28-43.58-14.29-53.45-35.83C1074.88,1684.93,1043.09,1713.58,1043.09,1713.58Z"/><path class="cls-4" d="M1023,1180.09s24.3,6.24,39.74,1.58,42,3,46.3,8.62,2.71,7.87-4.93,9.81-34.7,13.49-52.48,6.81-41-6.92-41-6.92Z"/><path class="cls-5" d="M813,969.06s27.3,194,72.48,211.33c22.3,8.57,120.84,28,150,30,0,0,7.14-5.8,5.4-29.38,0,0-103.24-37.9-117.91-58.51-21.83-30.68,13.55-125.32-13.84-154.14S835.64,927.13,813,969.06Z"/><path class="cls-6" d="M816.53,1716.39V1674.1H750a3.28,3.28,0,0,1-3.26-3.27v-6.77a3.28,3.28,0,0,1,3.26-3.27h66.58V1420.07a12.31,12.31,0,0,1,12.28-12.28H842a12.31,12.31,0,0,1,12.28,12.28v240.72h66.58a3.28,3.28,0,0,1,3.26,3.27v6.77a3.28,3.28,0,0,1-3.26,3.27H854.27v42.29c48.17,3.64,86.76,21,97.59,43.39H718.94C729.77,1737.37,768.36,1720,816.53,1716.39Z"/><path class="cls-7" d="M822.24,1377.69a340.08,340.08,0,0,0,26.66,38.14c29.33,37,61.26,67.56,66.82,96.41a128.83,128.83,0,0,0,5.16,18.47c2.32,6.62,5.19,13.57,8.5,20.75,12.45,27,31.06,57.33,49.65,84.87,32.12,47.6,62.33,87.32,62.33,87.32l55.4-2.36c-2.22-5.55-26.38-71.28-58.71-151.6-13.12-32.61-27.08-67.29-40.55-100.74q-2.68-6.71-5.36-13.33L980,1425.5C949.67,1350.08,925.49,1290,925.49,1290s-121.3-46-133.9-16.18C781.2,1298.4,789.66,1322.45,822.24,1377.69Z"/><path class="cls-3" d="M914.81,1583s-38.53,24.76-34.8,32.8c.5,1.07,21.8,39.21,21.8,39.21l27.46,48.53s11.56-6.87,6.09-22.49-8.76-45,5.23-64.14C955.32,1596.77,914.81,1583,914.81,1583Z"/><path class="cls-8" d="M967,1268.21s152.26,94.84,169.25,158.58S933.66,1626.5,933.66,1626.5s-24.08-21.24-28.33-36.82c0,0,99.24-118.89,120.76-145.55,13.22-16.36-195.47-56.66-221-96.31s-16.36-73-16.36-73Z"/><rect class="cls-9" x="668.26" y="1390" width="334.29" height="84.99" rx="11.33"/><path class="cls-4" d="M896.54,935.82a85.91,85.91,0,0,1,23.19,21c-36.47,9.43-96.94-24.37-96.94-24.37S846.26,916.69,855,882q.66-2.62,1.2-5.38a108.87,108.87,0,0,0,2-19l16.76,15,27.86,25s-.63,10.36-4.12,28.18Q897.73,930.48,896.54,935.82Z"/><path class="cls-10" d="M784.33,1107.9c5.23,70.28-3.56,177.11,2.37,195.62,5.11,16,65.31,6.52,88.58,1.19,8.61-2,19-4.79,29.81-8.13,30-9.3,62.79-22.59,66.3-32.45a7.77,7.77,0,0,0,.32-1.13,8.9,8.9,0,0,0-.06-4.14c-1.17-5-5.68-10.47-6.21-22.91-.6-13.9-.51-30.27-1-47.87,0-2,0-4.14-.27-6.11v-.72l0-1.13c-.5-19.63-1.53-40.26-2.72-60.73-.75-12.85-1.63-25.58-2.63-37.77-2.63-31.48-6.16-59.47-10.83-77.17-7.64-28.85-24.48-47.67-39.81-61.46L897,933.48c-12.38,2.7-27,.91-40.24-5.36-14.32-6.8-19.26-11.67-21.76-9.84C802,943.8,778.16,1022,784.33,1107.9Z"/><path class="cls-5" d="M904.92,1296.72c30-9.3,62.79-22.59,66.3-32.45a9.28,9.28,0,0,0,.32-1.13q0-2.07-.06-4.14c-1.17-5-5.68-10.46-6.21-22.91-.6-13.9-.51-30.27-1-47.87,0-2-.06-4.14-.27-6.11v-.72l0-1.13-113.5-51.47S843.89,1220.26,904.92,1296.72Z"/><path class="cls-11" d="M902.75,897.64s-.63,10.36-4.12,28.18C871.43,917,859.08,892.45,855,882c-1.17-2.95-1.68-4.77-1.68-4.77l2.88-.61,18.73-4Z"/><path class="cls-4" d="M913.77,897.37s-59.78,6.74-63.4-30.55-13.79-61.53,24.23-67.41,46.82,7.62,51.06,19.78S929.22,894.66,913.77,897.37Z"/><path class="cls-12" d="M850.62,869.4s3.79-49.5,58.21-54.63c37.27-3.51,16.49-35.59,12.51-40.7,0,0-28.55,3.91-57.82,8.75C802.09,793,844.59,861.69,850.62,869.4Z"/><rect class="cls-5" x="1162.09" y="1089.01" width="5.5" height="144.06" transform="translate(1913.87 2625.22) rotate(-162)"/><rect class="cls-5" x="994.14" y="1219.74" width="151.17" height="9.04" transform="translate(2113.06 2471.08) rotate(-178.78)"/><path class="cls-4" d="M1010.49,1209.9s23.46,8.88,39.32,6,41.43,7.6,45.07,13.67,1.82,8.12-6,9.21-36,9.58-52.91,1-40-11.4-40-11.4Z"/><path class="cls-10" d="M825.09,977s5.74,195.78,48.74,218c21.21,11,117,41.16,145.76,46.31,0,0,7.74-5,8.61-28.6,0,0-98.43-49-110.74-71.15-18.31-32.9,27.29-123.07,3.24-154.73S852.17,937.84,825.09,977Z"/><rect class="cls-13" x="1274.41" y="181.07" width="977.09" height="1263.56" rx="98.56" transform="translate(3525.91 1625.69) rotate(180)"/><rect class="cls-14" x="1370.42" y="313.49" width="786.67" height="1003.23" transform="translate(3527.51 1630.22) rotate(180)"/><path class="cls-8" d="M2045.54,1272.69h0a41.51,41.51,0,0,1-41.51-41.51V657.32a41.51,41.51,0,0,1,41.51-41.51h0a41.51,41.51,0,0,1,41.5,41.51v573.86A41.51,41.51,0,0,1,2045.54,1272.69Z"/><path class="cls-8" d="M1909.54,1272.69h0a41.51,41.51,0,0,1-41.51-41.51v-757a41.5,41.5,0,0,1,41.51-41.5h0a41.5,41.5,0,0,1,41.5,41.5v757A41.51,41.51,0,0,1,1909.54,1272.69Z"/><path class="cls-8" d="M1761.14,1272.69h0a41.51,41.51,0,0,1-41.5-41.51v-415a41.51,41.51,0,0,1,41.5-41.51h0a41.51,41.51,0,0,1,41.51,41.51v415A41.51,41.51,0,0,1,1761.14,1272.69Z"/><path class="cls-8" d="M1616.75,1272.69h0a41.51,41.51,0,0,1-41.51-41.51V586.36a41.5,41.5,0,0,1,41.51-41.5h0a41.5,41.5,0,0,1,41.5,41.5v644.82A41.51,41.51,0,0,1,1616.75,1272.69Z"/><path class="cls-8" d="M1513.1,913.65v317.53a41.51,41.51,0,0,1-41.5,41.51h0a41.51,41.51,0,0,1-41.51-41.51V913.65a41.5,41.5,0,0,1,41.51-41.51h0A41.5,41.5,0,0,1,1513.1,913.65Z"/><path class="cls-6" d="M1579.18,493.45h70.3a7.28,7.28,0,0,1,0,14.55h-70.3a7.28,7.28,0,1,1,0-14.55Z"/><path class="cls-6" d="M1633.47,519.92h16a7.27,7.27,0,0,1,0,14.54h-16a7.27,7.27,0,1,1,0-14.54Z"/><path class="cls-6" d="M1868.87,381.83h70.3a7.27,7.27,0,0,1,0,14.54h-70.3a7.27,7.27,0,1,1,0-14.54Z"/><path class="cls-6" d="M1923.16,408.29h16a7.3,7.3,0,0,1,7.27,7.28h0a7.29,7.29,0,0,1-7.27,7.27h-16a7.3,7.3,0,0,1-7.28-7.27h0A7.31,7.31,0,0,1,1923.16,408.29Z"/><path class="cls-6" d="M2009.47,564.8h70.3a7.28,7.28,0,0,1,0,14.55h-70.3a7.28,7.28,0,0,1,0-14.55Z"/><path class="cls-6" d="M2063.76,591.27h16a7.29,7.29,0,0,1,7.27,7.27h0a7.29,7.29,0,0,1-7.27,7.27h-16a7.29,7.29,0,0,1-7.27-7.27h0A7.29,7.29,0,0,1,2063.76,591.27Z"/><path class="cls-6" d="M1726,723.73h70.3a7.27,7.27,0,1,1,0,14.54H1726a7.27,7.27,0,1,1,0-14.54Z"/><path class="cls-6" d="M1780.28,750.19h16a7.31,7.31,0,0,1,7.28,7.28h0a7.3,7.3,0,0,1-7.28,7.27h-16a7.29,7.29,0,0,1-7.27-7.27h0A7.3,7.3,0,0,1,1780.28,750.19Z"/><path class="cls-6" d="M1436.45,820.91h70.3a7.28,7.28,0,0,1,0,14.55h-70.3a7.28,7.28,0,1,1,0-14.55Z"/><path class="cls-6" d="M1490.74,847.38h16a7.27,7.27,0,0,1,0,14.54h-16a7.27,7.27,0,1,1,0-14.54Z"/><path class="cls-12" d="M1471.6,800.22a25.83,25.83,0,1,1,25.83-25.83A25.86,25.86,0,0,1,1471.6,800.22Zm0-41.66a15.83,15.83,0,1,0,15.83,15.83A15.85,15.85,0,0,0,1471.6,758.56Z"/><path class="cls-12" d="M1460.6,758.56a5,5,0,0,1-3.54-1.47l-77.63-77.63H748.73a5,5,0,0,1,0-10h634.84L1464.13,750a5,5,0,0,1-3.53,8.54Z"/><path class="cls-12" d="M1620.16,1345a25.84,25.84,0,1,1,25.83-25.84A25.87,25.87,0,0,1,1620.16,1345Zm0-41.67a15.84,15.84,0,1,0,15.83,15.83A15.85,15.85,0,0,0,1620.16,1303.28Z"/><path class="cls-12" d="M2333,1424H1708.18l-80.56-80.56a5,5,0,0,1,7.07-7.07l77.63,77.63H2333a5,5,0,0,1,0,10Z"/><path class="cls-12" d="M1905.92,361.83A25.84,25.84,0,1,1,1931.75,336,25.86,25.86,0,0,1,1905.92,361.83Zm0-41.67A15.84,15.84,0,1,0,1921.75,336,15.86,15.86,0,0,0,1905.92,320.16Z"/><path class="cls-12" d="M1894.92,320.16a5,5,0,0,1-3.54-1.46l-77.63-77.63h-630.7a5,5,0,0,1,0-10h634.84l80.56,80.56a5,5,0,0,1-3.53,8.53Z"/><path class="cls-10" d="M1170.24,657.89H755.89a12.66,12.66,0,0,1-12.66-12.67h0a12.66,12.66,0,0,1,12.66-12.66h414.35a12.66,12.66,0,0,1,12.66,12.66h0A12.66,12.66,0,0,1,1170.24,657.89Z"/><path class="cls-10" d="M1170.24,617.89H915.89a12.66,12.66,0,0,1-12.66-12.67h0a12.66,12.66,0,0,1,12.66-12.66h254.35a12.66,12.66,0,0,1,12.66,12.66h0A12.66,12.66,0,0,1,1170.24,617.89Z"/><path class="cls-10" d="M1170.24,577.89H915.89a12.66,12.66,0,0,1-12.66-12.67h0a12.66,12.66,0,0,1,12.66-12.66h254.35a12.66,12.66,0,0,1,12.66,12.66h0A12.66,12.66,0,0,1,1170.24,577.89Z"/><path class="cls-10" d="M1601.66,216.91H1187.32a12.67,12.67,0,0,1-12.67-12.67h0a12.66,12.66,0,0,1,12.67-12.66h414.34a12.66,12.66,0,0,1,12.67,12.66h0A12.67,12.67,0,0,1,1601.66,216.91Z"/><circle class="cls-15" cx="1908.36" cy="1549.21" r="90.17" transform="translate(-536.51 1803.17) rotate(-45)"/><path class="cls-1" d="M1908.36,1473a76.22,76.22,0,0,1,54.32,129.69l-54.32-53.46-71.22,27.18A76.27,76.27,0,0,1,1908.36,1473Z"/><path class="cls-15" d="M1919.5,1510.51H1952a2.32,2.32,0,0,1,2.31,2.32h0a2.33,2.33,0,0,1-2.31,2.32H1919.5a2.33,2.33,0,0,1-2.32-2.32h0A2.33,2.33,0,0,1,1919.5,1510.51Z"/><path class="cls-15" d="M1919.5,1517.85H1952a2.32,2.32,0,0,1,0,4.64H1919.5a2.32,2.32,0,0,1,0-4.64Z"/><path class="cls-15" d="M1938.55,1525.19H1952a2.32,2.32,0,0,1,0,4.63h-13.4a2.32,2.32,0,1,1,0-4.63Z"/><polygon class="cls-15" points="1829.4 1506.89 1865.07 1471.22 1829.4 1471.22 1829.4 1506.89"/><circle class="cls-15" cx="2212.86" cy="1549.21" r="90.17" transform="translate(555.35 3682.15) rotate(-87.14)"/><path class="cls-1" d="M2136.64,1549.21a76.22,76.22,0,1,1,30,60.6l46.23-60.6-71.23,27.18A76.09,76.09,0,0,1,2136.64,1549.21Z"/><path class="cls-15" d="M2224.62,1510.51h32.45a2.32,2.32,0,0,1,2.31,2.32h0a2.33,2.33,0,0,1-2.31,2.32h-32.45a2.33,2.33,0,0,1-2.32-2.32h0A2.33,2.33,0,0,1,2224.62,1510.51Z"/><path class="cls-15" d="M2224.62,1517.85h32.45a2.32,2.32,0,0,1,0,4.64h-32.45a2.32,2.32,0,1,1,0-4.64Z"/><path class="cls-15" d="M2243.67,1525.19h13.4a2.32,2.32,0,0,1,0,4.63h-13.4a2.32,2.32,0,1,1,0-4.63Z"/><polygon class="cls-15" points="2134.4 1506.89 2170.07 1471.22 2134.4 1471.22 2134.4 1506.89"/><path class="cls-16" d="M2543,1763H458.33a3,3,0,0,1-3-3h0a3,3,0,0,1,3-3H2543a3,3,0,0,1,3,3h0A3,3,0,0,1,2543,1763Z"/></svg>