<svg id="Layer_1" data-name="Layer 1" xmlns="http://www.w3.org/2000/svg" viewBox="0 0 3200 2000"><defs><style>.cls-1{fill:#fff;}.cls-2{fill:#daecfa;}.cls-3{fill:#e49963;}.cls-4{fill:#4a75cb;}.cls-5{fill:#2b478b;}.cls-6{fill:#163560;}.cls-7{fill:#1c468a;}.cls-8{fill:#ee9849;}.cls-9{fill:#739af0;}.cls-10{fill:#d68d5d;}.cls-11,.cls-16{fill:#78acea;}.cls-12{fill:#afcdfb;}.cls-13{fill:#5e92dd;opacity:0.4;}.cls-14{fill:#95c0f4;}.cls-15{fill:#8cbaf1;}.cls-16{opacity:0.9;}.cls-17{fill:#fcecdb;}.cls-18{fill:#f99746;}.cls-19{fill:#f9e5d1;}.cls-20{fill:#efcbab;}.cls-21{fill:#ed7d2b;}.cls-22{fill:#ffb27d;}.cls-23{fill:#9e332e;}.cls-24{fill:#b5453c;}.cls-25{fill:#d46b1f;}.cls-26{fill:#fca56b;}.cls-27{fill:#2e3552;}</style></defs><rect class="cls-1" width="3200" height="2000" transform="translate(3200 2000) rotate(180)"/><path class="cls-2" d="M448.33,1850.47C-108.6,1085.71,331.4,246.51,1085.46,220c615.55-21.65,579.8,352.16,1141.46,168.44,754.89-194.1,1000.17,833.78,549.74,1462.05Z" transform="translate(0)"/><path class="cls-3" d="M2354,1137s-29.86,7.67-48.84,2-51.64,3.67-56.9,10.59-3.33,9.67,6.06,12.06,42.64,16.58,64.5,8.37,50.36-8.51,50.36-8.51Z" transform="translate(0)"/><path class="cls-4" d="M2612,877.67s-33.54,238.38-89.07,259.73c-27.4,10.53-148.51,34.41-184.33,36.81,0,0-8.78-7.12-6.64-36.1,0,0,126.88-46.58,144.91-71.91,26.82-37.7-16.66-154,17-189.44S2584.25,826.14,2612,877.67Z" transform="translate(0)"/><rect class="cls-5" x="2561.36" y="1416.86" width="46.38" height="405.92" rx="15.09"/><path class="cls-5" d="M2727.68,1849.46c-15-31-73.39-54.21-143.13-54.21s-128.13,23.16-143.13,54.21Z" transform="translate(0)"/><path class="cls-5" d="M2479.53,1727.81h210a4,4,0,0,1,4,4v8.33a4,4,0,0,1-4,4h-210a4,4,0,0,1-4-4v-8.33A4,4,0,0,1,2479.53,1727.81Z"/><path class="cls-6" d="M2600.72,1379.88a418.66,418.66,0,0,1-32.76,46.87c-36.05,45.51-75.29,83-82.12,118.49a160.49,160.49,0,0,1-6.34,22.7c-2.85,8.13-6.38,16.67-10.46,25.5-15.29,33.23-38.17,70.46-61,104.3-39.48,58.51-76.61,107.32-76.61,107.32l-68.08-2.9c2.73-6.82,32.42-87.6,72.15-186.32,16.13-40.07,33.28-82.7,49.83-123.81l6.59-16.37c5.06-12.58,10-25,14.9-37l67-166.51s149.09-56.47,164.57-19.88C2651.16,1282.42,2640.76,1312,2600.72,1379.88Z" transform="translate(0)"/><path class="cls-6" d="M2329.3,1792.68s-3.49,56.19-14.36,57c-1.44.11-55.13.11-55.13.11l-68.53-.4s.45-16.51,20.48-20,53.56-17.57,65.7-44.05C2290.23,1757.48,2329.3,1792.68,2329.3,1792.68Z" transform="translate(0)"/><path class="cls-6" d="M2487,1632.18s47.36,30.43,42.77,40.31c-.61,1.31-26.78,48.19-26.78,48.19l-33.76,59.64s-14.2-8.44-7.48-27.63,10.77-55.33-6.43-78.83C2437.17,1649.13,2487,1632.18,2487,1632.18Z" transform="translate(0)"/><path class="cls-7" d="M2420.27,1247s-184.52,114.89-205.41,193.22,248.93,245.45,248.93,245.45,29.59-26.11,34.81-45.26c0,0-122-146.12-148.41-178.87-16.25-20.12,240.23-69.64,271.57-118.38s20.11-89.75,20.11-89.75Z" transform="translate(0)"/><rect class="cls-8" x="2379.13" y="1395" width="410.84" height="104.45" rx="13.93"/><path class="cls-3" d="M2509.41,836.81a105.72,105.72,0,0,0-28.51,25.84c44.83,11.59,119.15-29.95,119.15-29.95s-28.85-19.39-39.54-62c-.55-2.15-1-4.36-1.47-6.61a135.18,135.18,0,0,1-2.43-23.33L2536,759.22l-34.25,30.68s.78,12.73,5.06,34.63C2507.58,828.35,2508.43,832.45,2509.41,836.81Z" transform="translate(0)"/><path class="cls-9" d="M2647.52,1048.48c-6.42,86.37,2,217.72-5.25,240.47-6.29,19.63-77.92,8-106.52,1.4-10.58-2.42-23.4-5.89-36.64-10-36.93-11.44-77.17-27.76-81.48-39.89a9.78,9.78,0,0,1-.4-1.39,11,11,0,0,1,.08-5.08c1.44-6.18,7-12.86,7.63-28.16.73-17.08.62-37.2,1.27-58.83,0-2.43.06-5.09.33-7.51v-.89c0-.47,0-.92,0-1.38.62-24.12,1.88-49.49,3.35-74.64.93-15.79,2-31.43,3.24-46.42,3.22-38.69,7.56-73.1,13.3-94.85,9.39-35.45,30.09-58.58,48.93-75.53L2509,834.11c15.21,3.32,33.19,1.12,49.45-6.58,17.6-8.36,23.68-14.35,26.74-12.09C2625.87,846.8,2655.11,942.9,2647.52,1048.48Z" transform="translate(0)"/><path class="cls-4" d="M2499.11,1280.37c-36.93-11.44-77.17-27.76-81.48-39.89a9.78,9.78,0,0,1-.4-1.39c0-1.69,0-3.39.08-5.08,1.44-6.18,7-12.86,7.63-28.16.73-17.08.62-37.2,1.27-58.83,0-2.43.06-5.09.33-7.51v-.89c0-.47,0-.92,0-1.38L2566.07,1074S2574.11,1186.4,2499.11,1280.37Z" transform="translate(0)"/><path class="cls-10" d="M2559.79,767.68h0c-.27-1.18-.52-2.37-.75-3.58l-23-4.88-34.25,30.68s.47,7.63,2.67,21.24C2538.14,800.89,2554.93,780,2559.79,767.68Z" transform="translate(0)"/><path class="cls-3" d="M2488.23,789.56s73.47,8.29,77.92-37.54,16.94-75.63-29.77-82.85-57.55,9.37-62.75,24.3S2469.24,786.23,2488.23,789.56Z" transform="translate(0)"/><path class="cls-5" d="M2562.77,767.68c-11.09-4.3-9.35-28.75-17.15-47.8-6.38-15.59-22.18-29.64-51.31-31.83-45.88-3.45-20.27-43.74-15.39-50,0,0,35.1,4.81,71.07,10.76C2625.49,661.25,2570.19,758.21,2562.77,767.68Z" transform="translate(0)"/><path class="cls-3" d="M2543.68,732.72c5.75-11,17.65-14.75,20-2.75s-8.45,23.2-12.5,20.25C2545.68,746.22,2543.68,732.72,2543.68,732.72Z" transform="translate(0)"/><rect class="cls-4" x="2176.28" y="1025.08" width="6.76" height="177.05" transform="translate(-237.39 727.71) rotate(-17.99)"/><rect class="cls-4" x="2203.66" y="1185.75" width="185.79" height="11.11" transform="translate(-24.91 49.3) rotate(-1.22)"/><path class="cls-3" d="M2369.36,1173.67s-28.83,10.91-48.32,7.32-50.92,9.34-55.39,16.8-2.24,10,7.35,11.32,44.21,11.77,65,1.2,49.11-14,49.11-14Z" transform="translate(0)"/><path class="cls-9" d="M2597.22,887.45s-7,240.62-59.9,268c-26.07,13.5-143.8,50.58-179.14,56.92,0,0-9.51-6.11-10.58-35.15,0,0,121-60.28,136.09-87.45,22.51-40.43-33.53-151.25-4-190.16S2563.94,839.29,2597.22,887.45Z" transform="translate(0)"/><rect class="cls-11" x="1192.11" y="506.55" width="707.58" height="1342.6" rx="36.21"/><path class="cls-12" d="M1937.09,542.76V1812.94a36.32,36.32,0,0,1-36.21,36.21H1265.71a36.31,36.31,0,0,1-36.2-36.21V542.76a36.31,36.31,0,0,1,36.2-36.22h635.17A36.33,36.33,0,0,1,1937.09,542.76Z" transform="translate(0)"/><path class="cls-13" d="M1687,557.37H1503.06a7.18,7.18,0,0,1-7.16-7.16h0a7.18,7.18,0,0,1,7.16-7.16H1687a7.18,7.18,0,0,1,7.16,7.16h0A7.18,7.18,0,0,1,1687,557.37Z" transform="translate(0)"/><path class="cls-13" d="M1470.39,557.37h0a7.18,7.18,0,0,1-7.16-7.16h0a7.18,7.18,0,0,1,7.16-7.16h0a7.18,7.18,0,0,1,7.15,7.16h0A7.18,7.18,0,0,1,1470.39,557.37Z" transform="translate(0)"/><path class="cls-14" d="M1638.22,1775a46.16,46.16,0,1,1-46.16-46.15A46,46,0,0,1,1638.22,1775Z" transform="translate(0)"/><rect class="cls-14" x="1271.88" y="589.25" width="627.46" height="1116.86"/><path class="cls-15" d="M1624.83,1807.45a46.15,46.15,0,1,1-57.51-71.45C1571.84,1755.65,1585.25,1788.52,1624.83,1807.45Z" transform="translate(0)"/><path class="cls-16" d="M1890.31,722.78H1306.37c-5,0-9,5.26-9,11.69v373.34c0,6.42,4.06,11.68,9,11.68h583.94c5,0,9-5.26,9-11.68V734.47C1899.33,728,1895.27,722.78,1890.31,722.78Z" transform="translate(0)"/><path class="cls-16" d="M1672.45,1176.34H1217.19c-3.86,0-7,5.25-7,11.69v373.34c0,6.42,3.17,11.68,7,11.68h455.26c3.87,0,7-5.26,7-11.68V1188C1679.49,1181.59,1676.32,1176.34,1672.45,1176.34Z" transform="translate(0)"/><path class="cls-17" d="M2112.29,700.84v373.34a11.72,11.72,0,0,1-11.69,11.68H1344.54a11.72,11.72,0,0,1-11.67-11.68V700.84a11.71,11.71,0,0,1,11.67-11.69H2100.6A11.71,11.71,0,0,1,2112.29,700.84Z" transform="translate(0)"/><path class="cls-18" d="M2112.29,700.84v373.34c0,6.42-6.11,11.68-13.59,11.68H1722.58V689.15H2098.7C2106.18,689.15,2112.29,694.41,2112.29,700.84Z" transform="translate(0)"/><path class="cls-17" d="M1907.21,834.06H1774.15a8.5,8.5,0,0,1-8.48-8.47h0a8.5,8.5,0,0,1,8.48-8.47h133.06a8.49,8.49,0,0,1,8.47,8.47h0A8.49,8.49,0,0,1,1907.21,834.06Z" transform="translate(0)"/><path class="cls-17" d="M1773.13,842.54h101.21a7.45,7.45,0,0,1,7.45,7.45v2a7.45,7.45,0,0,1-7.45,7.45H1773.13a7.45,7.45,0,0,1-7.45-7.45v-2A7.46,7.46,0,0,1,1773.13,842.54Z"/><path class="cls-17" d="M1775.9,739.12a15.52,15.52,0,0,1,24.94-.06c3.18,4.14,4.74,9.31,4.74,15.5s-1.56,11.36-4.74,15.51a15.57,15.57,0,0,1-24.94,0c-3.19-4.15-4.75-9.32-4.75-15.51S1772.71,743.26,1775.9,739.12Zm21.69,2.88q-3.6-5-9.19-5t-9.2,5a21.13,21.13,0,0,0-3.61,12.56,21.58,21.58,0,0,0,3.55,12.62,11,11,0,0,0,9.26,5,10.81,10.81,0,0,0,9.19-5,23.76,23.76,0,0,0,0-25.18Z" transform="translate(0)"/><path class="cls-17" d="M1839.9,738c2.82,3.42,4.26,8.29,4.26,14.48.24,13.1-6.85,23.92-18.27,23.8a15,15,0,0,1-8.89-2.59v-4.26a14.82,14.82,0,0,0,8.53,2.7c10,0,14.13-9.07,14.31-18-2.23,3.79-6.61,6.25-12.32,6.25a13.76,13.76,0,0,1-9.68-3.72,13,13,0,0,1-3.9-9.68,13.84,13.84,0,0,1,4.08-10.22,14.07,14.07,0,0,1,10.22-4C1833.17,732.81,1837.07,734.55,1839.9,738Zm-18.69,1.8a9.56,9.56,0,0,0-2.89,7.21,8.68,8.68,0,0,0,3,6.91,10.62,10.62,0,0,0,7.33,2.59,11.27,11.27,0,0,0,6.85-2.35,11.65,11.65,0,0,0,4.27-5.83C1839,741.16,1835,737,1828.48,737A10,10,0,0,0,1821.21,739.84Z" transform="translate(0)"/><path class="cls-17" d="M1853.06,748.25a3.14,3.14,0,1,1,0,4.45A3.19,3.19,0,0,1,1853.06,748.25Zm0,22.36a3.14,3.14,0,1,1,0,4.44A3.19,3.19,0,0,1,1853.06,770.61Z" transform="translate(0)"/><path class="cls-17" d="M1873.85,775.6V738.34l-9.44,5.4v-4.26l9.92-6h3.91V775.6Z" transform="translate(0)"/><path class="cls-17" d="M1893.56,739.12a15.52,15.52,0,0,1,24.94-.06c3.18,4.14,4.75,9.31,4.75,15.5s-1.57,11.36-4.75,15.51a15.57,15.57,0,0,1-24.94,0c-3.19-4.15-4.75-9.32-4.75-15.51S1890.37,743.26,1893.56,739.12Zm21.69,2.88q-3.6-5-9.19-5t-9.2,5a21.13,21.13,0,0,0-3.6,12.56,21.58,21.58,0,0,0,3.54,12.62,11,11,0,0,0,9.26,5,10.79,10.79,0,0,0,9.19-5q3.62-5,3.61-12.62A21.07,21.07,0,0,0,1915.25,742Z" transform="translate(0)"/><path class="cls-17" d="M1949.15,775.6V733.53h17.67c8.41,0,13.46,4.69,13.46,11.66,0,7.15-5,11.84-13.46,11.84h-13.23V775.6Zm4.44-22.6h12.92c6,0,9.38-2.82,9.38-7.69s-3.43-7.76-9.38-7.76h-12.92Z" transform="translate(0)"/><path class="cls-17" d="M1989.11,775.6V733.53h4.39l15.2,20.37,15.21-20.37h4.32V775.6h-4.38V740.26l-13.77,18.39h-2.7l-13.88-18.39V775.6Z" transform="translate(0)"/><path class="cls-19" d="M1557.25,1085.86H1344.54a11.72,11.72,0,0,1-11.67-11.68V820.48C1390.86,889,1504.39,1023.29,1557.25,1085.86Z" transform="translate(0)"/><path class="cls-18" d="M1526.29,738.3a77.06,77.06,0,0,0-77.07,77.06c0,42.57,77.07,137.19,77.07,137.19s77.06-94.62,77.06-137.19A77.06,77.06,0,0,0,1526.29,738.3Zm0,112.3a36,36,0,1,1,36-36A36,36,0,0,1,1526.29,850.6Z" transform="translate(0)"/><path class="cls-20" d="M1519.8,1016.52H1386.74a8.5,8.5,0,0,1-8.47-8.48h0a8.49,8.49,0,0,1,8.47-8.47H1519.8a8.5,8.5,0,0,1,8.48,8.47h0A8.5,8.5,0,0,1,1519.8,1016.52Z" transform="translate(0)"/><path class="cls-20" d="M1385.72,1025h101.21a7.46,7.46,0,0,1,7.46,7.46v2a7.46,7.46,0,0,1-7.46,7.46h-101.2a7.46,7.46,0,0,1-7.46-7.46v-2A7.45,7.45,0,0,1,1385.72,1025Z"/><path class="cls-17" d="M1739,1159.36V1532.7a11.72,11.72,0,0,1-11.68,11.69h-756a11.73,11.73,0,0,1-11.7-11.69V1159.36a11.72,11.72,0,0,1,11.7-11.67h756A11.71,11.71,0,0,1,1739,1159.36Z" transform="translate(0)"/><path class="cls-18" d="M1739,1159.36V1532.7a11.72,11.72,0,0,1-11.68,11.69H1391v-396.7h336.26A11.7,11.7,0,0,1,1739,1159.36Z" transform="translate(0)"/><path class="cls-17" d="M1562.44,1426.89a18.86,18.86,0,0,1-16.27-9.33l-49.7-85a18.86,18.86,0,0,1,32.56-19l31.88,54.5,60-123.51a18.86,18.86,0,1,1,33.92,16.49l-75.46,155.24a18.87,18.87,0,0,1-16.23,10.6Z" transform="translate(0)"/><path class="cls-17" d="M1562.44,1470.6a117,117,0,1,1,117-117A117.18,117.18,0,0,1,1562.44,1470.6Zm0-220.38a103.33,103.33,0,1,0,103.34,103.33A103.46,103.46,0,0,0,1562.44,1250.22Z" transform="translate(0)"/><path class="cls-19" d="M1181,1544.39H971.24a11.73,11.73,0,0,1-11.7-11.69V1243.8Z" transform="translate(0)"/><path class="cls-18" d="M1061,1212.44a41.93,41.93,0,1,0,41.92,41.93A41.93,41.93,0,0,0,1061,1212.44Zm29,43.27h-29a1.34,1.34,0,0,1-1.34-1.34v-31.22a1.34,1.34,0,1,1,2.67,0V1253H1090a1.34,1.34,0,1,1,0,2.68Z" transform="translate(0)"/><path class="cls-20" d="M1276.69,1238.76H1143.63a8.5,8.5,0,0,1-8.47-8.48h0a8.49,8.49,0,0,1,8.47-8.47h133.06a8.5,8.5,0,0,1,8.48,8.47h0A8.51,8.51,0,0,1,1276.69,1238.76Z" transform="translate(0)"/><path class="cls-20" d="M1142.61,1247.23h101.21a7.46,7.46,0,0,1,7.46,7.46v2a7.46,7.46,0,0,1-7.46,7.46H1142.61a7.46,7.46,0,0,1-7.46-7.46v-2A7.45,7.45,0,0,1,1142.61,1247.23Z"/><path class="cls-18" d="M1056.8,1374.71a37.74,37.74,0,0,0-37.74,37.74c0,20.84,37.74,67.18,37.74,67.18s37.74-46.34,37.74-67.18A37.74,37.74,0,0,0,1056.8,1374.71Zm0,55a17.64,17.64,0,1,1,17.64-17.64A17.64,17.64,0,0,1,1056.8,1429.7Z" transform="translate(0)"/><path class="cls-20" d="M1266.57,1402.22H1133.51a8.49,8.49,0,0,1-8.47-8.47h0a8.5,8.5,0,0,1,8.47-8.48h133.06a8.51,8.51,0,0,1,8.48,8.48h0A8.5,8.5,0,0,1,1266.57,1402.22Z" transform="translate(0)"/><path class="cls-20" d="M1132.49,1410.69H1233.7a7.46,7.46,0,0,1,7.46,7.46v2a7.46,7.46,0,0,1-7.46,7.46H1132.49a7.45,7.45,0,0,1-7.45-7.45v-2A7.45,7.45,0,0,1,1132.49,1410.69Z"/><rect class="cls-17" x="1805.58" y="987.64" width="232.27" height="63.71" rx="27.91"/><path class="cls-18" d="M1921.34,1033.42a3.51,3.51,0,0,1-3-1.75l-9.27-15.85a3.52,3.52,0,1,1,6.07-3.55l6,10.17,11.2-23.05a3.52,3.52,0,0,1,6.33,3.08l-14.08,29a3.52,3.52,0,0,1-3,2Z" transform="translate(0)"/><path class="cls-18" d="M1921.34,1041.57a21.84,21.84,0,1,1,21.84-21.84A21.86,21.86,0,0,1,1921.34,1041.57Zm0-41.12a19.28,19.28,0,1,0,19.28,19.28A19.3,19.3,0,0,0,1921.34,1000.45Z" transform="translate(0)"/><path class="cls-21" d="M658.09,814.84s-89.21,89.62-93.56,125.52,44.06,91.93,44.06,91.93Z" transform="translate(0)"/><path class="cls-6" d="M702.43,1797.52s3.25,50.59,13,51.29c1.31.09,49.65,0,49.65,0l61.72-.49s-.44-14.87-18.48-18-48.27-15.71-59.25-39.53C737.55,1765.74,702.43,1797.52,702.43,1797.52Z" transform="translate(0)"/><path class="cls-6" d="M565,1797.82s3.24,50.58,13,51.29c1.31.09,49.65,0,49.65,0l61.72-.49s-.44-14.87-18.49-18-48.27-15.72-59.25-39.54C600.08,1766,565,1797.82,565,1797.82Z" transform="translate(0)"/><path class="cls-6" d="M769.6,1253.6s-15.92,103.26-75.74,286.65S626,1803,626,1803l-64.6-1.68s-1-200.27,26.56-292.49,5.27-332.23,5.27-332.23Z" transform="translate(0)"/><path class="cls-7" d="M800.87,1181.82s2.63,155.56-23.87,346.63-17.2,272.13-17.2,272.13l-64.47,2.28s-38.93-191-28.1-286.62-53.46-328-53.46-328Z" transform="translate(0)"/><path class="cls-22" d="M675.29,818l34.39,22.45,49.62-9.36c-.69-4-4-20.61-7-35.64-.18-.89-.37-1.78-.54-2.64-2.58-12.8-4.81-23.79-4.81-23.79l-46.41-20.35-17.3-7.59c0,.27,1.37,14.2,1.55,16.23C688.1,793.47,675.29,818,675.29,818Z" transform="translate(0)"/><path class="cls-23" d="M746.54,806.53c-1-.41-59.82-17.63-66.2-15.51s-10.14,14.49-10.14,14.49l96.24,21.54S758.84,811.68,746.54,806.53Z" transform="translate(0)"/><path class="cls-24" d="M589,1201.49c10.07,45.45,176,50.49,218.67,9.11,4.85-4.71,5-26.61,3.15-56.12-3.72-57.66-15.43-144.39-16-188.71-.27-21.4-3.26-43.28-7.22-63.15a512.1,512.1,0,0,0-21.21-75.57s-81.09-26-96.24-21.53C597.19,827.14,579,1156,589,1201.49Z" transform="translate(0)"/><path class="cls-23" d="M810.84,1154.48c-3.72-57.66-15.43-144.39-16-188.71-.27-21.4-3.26-43.28-7.22-63.15l-48.76-8.5S691.65,1088.89,810.84,1154.48Z" transform="translate(0)"/><path class="cls-25" d="M690.59,1062.39c33.33-16.67,86.56-75.49,90.28-91.74,23.72,3.74,25,23.74,25,23.74-34,71.33-101.33,114-115.33,120.66A385.7,385.7,0,0,0,690.59,1062.39Z" transform="translate(0)"/><path class="cls-22" d="M784.27,1074.15s-3.31,7.95,3.68,13.27,11.53,13.95,9.95,20.27-16.87,16.65-22.18,15-16.13-9.94-15-13.28-7.33-29.21,5.59-39.2S784.27,1074.15,784.27,1074.15Z" transform="translate(0)"/><path class="cls-24" d="M729,817.87s49.23,6.85,85.73,62.13c37.17,56.3,63,97.19,56.08,117.33s-70.39,90.05-81.36,90.08-28.68-7.92-29.71-25.86c0,0,47.29-67.55,38.45-77.58-3.78-4.29-60.9-48-68.62-28C716.82,989,729,817.87,729,817.87Z" transform="translate(0)"/><path class="cls-26" d="M688.26,758c10.21,17.23,48.18,32.06,64,37.51-.18-.89-.37-1.78-.54-2.64-2.58-12.8-4.81-23.79-4.81-23.79l-46.41-20.35C690.27,748.59,684,750.9,688.26,758Z" transform="translate(0)"/><path class="cls-22" d="M764.4,766.2S689.77,789.66,675.87,743,643,667.84,690.05,650.88s61.67-1.9,70.1,12.57S783.45,758.9,764.4,766.2Z" transform="translate(0)"/><path class="cls-6" d="M757.2,659s-4.64,54.39-15.89,52-21.46-4.06-19.78,12.33,16.25,35.92-25.52,40.5c-34.57,3.8-76.48-88.54-67-105.49C656.38,609.45,796.78,599.29,757.2,659Z" transform="translate(0)"/><path class="cls-25" d="M685.26,865.05c18.66-31.79,51-43.33,72.77-40.63,23.89,8,28.26,22.81,28.26,22.81-35-12.18-91.52,43.82-98.95,88.49C676.59,924.39,685.26,865.05,685.26,865.05Z" transform="translate(0)"/><rect class="cls-21" x="500.91" y="825.45" width="238.28" height="312.27" rx="23.44"/><rect class="cls-18" x="383.64" y="825.45" width="238.28" height="312.27" rx="23.44"/><path class="cls-24" d="M540.44,926.9a45,45,0,0,0-45,45c0,24.88,45,80.19,45,80.19s45-55.31,45-80.19A45,45,0,0,0,540.44,926.9Zm0,65.64a21.06,21.06,0,1,1,21.06-21A21.05,21.05,0,0,1,540.44,992.54Z" transform="translate(0)"/><path class="cls-24" d="M411.76,1050.51v8.54h-6.85v-26.33h16.4v6h-9.55v5.75h8.46v6Z" transform="translate(0)"/><path class="cls-24" d="M440.5,1055.74H430.12l-1.54,3.31H422v-1l11.85-25.69h2.89l11.89,25.69v1H442ZM435.28,1043l-2.94,6.92h5.94Z" transform="translate(0)"/><path class="cls-24" d="M465,1051.19c0-1.85-2.18-2.15-4.81-2.3-5.72-.41-9.48-2.37-9.55-8.08-.23-11.36,20.23-11.36,20.08,0h-6.39c0-3.5-7.08-3.2-7.3-.08-.15,2,1.8,2.41,4.17,2.67,5.23.57,10.35,1.24,10.35,7.83,0,11-21.44,11.35-21.29-.23h6.51C456.77,1054.35,465,1054.27,465,1051.19Z" transform="translate(0)"/><path class="cls-24" d="M473.89,1038.74v-6h19.56v6H487v20.31h-6.66v-20.31Z" transform="translate(0)"/><path class="cls-24" d="M414.84,1092.87h-9.93v-26.33h9.93C432,1066.62,432,1092.79,414.84,1092.87Zm-3.19-6.13h3.19c8.39,0,8.39-14.07,0-14.07h-3.19Z" transform="translate(0)"/><path class="cls-24" d="M449.27,1072.56h-9.74v3.72h9v6h-9v4.63h10.08v6H432.83v-26.33h16.44Z" transform="translate(0)"/><path class="cls-24" d="M462.15,1086.81h9.55v6.06H455.37v-26.33h6.78Z" transform="translate(0)"/><path class="cls-24" d="M487.51,1087v5.91H474.15V1087h3.35v-14.55h-3.08v-5.87h12.82v5.87h-3.08V1087Z" transform="translate(0)"/><path class="cls-24" d="M501.73,1081.47h.19l6-14.93h6.47v1l-11.17,25.61h-2.86l-11.29-25.61v-1h6.47Z" transform="translate(0)"/><path class="cls-24" d="M534.77,1072.56H525v3.72h9v6h-9v4.63h10.08v6H518.33v-26.33h16.44Z" transform="translate(0)"/><path class="cls-24" d="M563.14,1091.89v1h-7.52l-4.52-7.75h-3.5v7.75h-6.73v-26.33h11.55c10.34,0,12.22,12.49,5.56,17Zm-10.72-19.33c-1.58,0-3.24,0-4.82,0v6.51h4.82C556.07,1079.07,556.26,1072.59,552.42,1072.56Z" transform="translate(0)"/><path class="cls-24" d="M579.33,1092.87h-6.66v-11.06l-8.84-14.25v-1h7.26l4.77,8.76h.27l4.77-8.76h7.3v1l-8.87,14.25Z" transform="translate(0)"/><rect class="cls-27" x="233.26" y="1848" width="2756.94" height="6.51" rx="3.25" transform="translate(3223.47 3702.51) rotate(180)"/></svg>