<svg id="_лой_1" data-name="‘лой_1" xmlns="http://www.w3.org/2000/svg" viewBox="0 0 3000 2000"><defs><style>.cls-1{fill:#fff;}.cls-2{fill:#ebf3fa;}.cls-3{opacity:0.3;}.cls-4{fill:#aec3ff;}.cls-5{fill:#cde0fb;}.cls-6{fill:#afcdfb;}.cls-7{opacity:0.5;}.cls-8{opacity:0.2;}.cls-9{fill:#ffb27d;}.cls-10{fill:#2b478b;}.cls-11{fill:#233862;}.cls-12{fill:#94b0ed;}.cls-13{fill:#f99746;}.cls-14{fill:#ed7d2b;}.cls-15{fill:#ed975d;}.cls-16{fill:#6376e5;}.cls-17{opacity:0.9;}.cls-18{opacity:0.8;}.cls-19{fill:#ed985f;}.cls-20{fill:#0d2644;}.cls-21{fill:#163560;}.cls-22{fill:#db6b3a;}.cls-23{fill:#f78248;}.cls-24{fill:#ffc49c;}.cls-25{fill:#2e3552;}</style></defs><rect class="cls-1" width="3000" height="2000"/><path class="cls-2" d="M601.62,1835.5S309.39,1458.35,614.15,1130c338.71-364.93,18.69-773.22,356.17-918.57,475.89-205,561.19,200.44,1094.12,99.94,445-83.92,435.57,571.78,304,805.78-109,194,311.23,290.18,96.11,717.47Z"/><g class="cls-3"><path class="cls-4" d="M1707.17,827.1s46.16-224.59,223-254.26c0,0,34.42-5.25,47,32.46s-56.07,40-98.09,56.5S1740,746.06,1707.17,827.1Z"/></g><g class="cls-3"><path class="cls-4" d="M1701.92,785.48s-23.81-184.24,103.86-253.57c0,0,25-13.09,44.58,12.47s-32.43,45.4-60.26,69.14S1705.73,714.73,1701.92,785.48Z"/></g><path class="cls-5" d="M984.79,718.09c21.65-61.62,126.3-34.16,126.3-34.16s63.94,115.32,84.7,119.49-35.41-109.28-35.41-109.28c40.89-.94,140.7,56.45,140.7,56.45s-16,127.88,5.15,126.8,8.39-113.95,8.39-113.95c38.43,14.68,71.73,63.22,71.73,63.22,40.34,78-61.94,125.81-61.94,125.81s-4.59,44.44,19.16,97.55h0s5.51,9.89,10.64,26.38l-10.71-.79c-.66-2.93-1.43-5.78-2.3-8.52,0,0,0,0,0,0a.56.56,0,0,1,0-.12c-.61-1.71-1.5-4.15-2.6-7.11h0v0c-2.8-6.65-4.66-11.54-5.81-15.06v0c-8.32-20.84-20.52-48.08-29.54-54.27a20.6,20.6,0,0,0,2.65-4.75c-.84,1.52-1.73,3.09-2.65,4.75-21.23,37.94-113.4,37.74-163.71,23.5s-27-27,2.24-48.36,86.41-11,104.11-18.87-6.51-18.92-40.75-18.8-53.79,32.91-109.18,34.1-89.7-105.37-89.7-105.37c37.12,14.58,106.77-1.36,110.36-14.26s-97.37-19-112.8-24.11S963.13,779.7,984.79,718.09Z"/><path class="cls-6" d="M824.41,1686.58c-37.94-66.17,66.19-137.71,66.19-137.71s150.74,31.49,170.27,16.31-123.62-52.09-123.62-52.09c30.37-36.87,157.28-81.29,157.28-81.29s100.83,111.73,116,92.21-94.32-94.38-94.32-94.38c42.3-22.76,110.62-15.15,110.62-15.15,99.77,23.89,64,150.77,64,150.77s35.78,38,100.84,57.51h0s12.95,2.67,31.45,10.73l-8.87,8.86c-3.11-1.65-6.2-3.15-9.3-4.48l-.05,0-.14-.06c-2-.76-4.8-1.84-8.26-3.13h0c-8-2.59-13.77-4.68-17.75-6.36h0c-24.77-8.54-58.16-18.55-70.51-15.31a24.29,24.29,0,0,0-2.17-6l2.17,6c17.33,47.73-53.18,129-104.17,162.65s-44.46,3.24-41-38.89,56.26-84.74,62.78-106.43S1204,1621.62,1178,1652s-12,72.66-53.18,122.54-161.59-1.14-161.59-1.14c41.22-21.67,80.28-95.41,71.61-108.43s-91.12,71.55-107.39,81.31S862.35,1752.75,824.41,1686.58Z"/><g class="cls-7"><path class="cls-6" d="M2277.26,804.31c-7.35-68.57-121.56-65.66-121.56-65.66s-93.62,103.09-116,102.34,62.83-103.76,62.83-103.76c-41.81-10.86-158.29,24-158.29,24s-14.48,135.31-36,129.09,18.94-119.16,18.94-119.16c-43,5.8-89,47.64-89,47.64-60.35,70.45,33.24,144.31,33.24,144.31s-6,46.78-43.29,95.63h0s-8.06,8.83-17.32,24.55l11.2,1.78q2.09-4.29,4.42-8.21l0,0,.07-.11c1-1.61,2.54-3.9,4.39-6.68h0c4.48-6.16,7.58-10.74,9.61-14.08l0,0c13.6-19.4,32.72-44.45,43.49-48.63a22.26,22.26,0,0,1-1.58-5.52c.5,1.76,1,3.59,1.58,5.52,12.65,44.13,107.44,66.22,162.6,63.75s34.27-21.23,9.39-50.26-86.17-32.15-102.45-44.57,11.26-17.87,46.44-9.47,47.32,46.84,104,61.46,117.68-86.62,117.68-86.62c-41.68,6-109.42-27.22-110-41.35s104.69,4,121.77,2.5S2284.62,872.89,2277.26,804.31Z"/></g><g class="cls-8"><path class="cls-6" d="M2337.25,1638.51c75.66-62.08-16.66-195.36-16.66-195.36s-195.18-30.9-211.68-58,172-6.17,172-6.17c-19.65-58.06-151.64-169.18-151.64-169.18s-171.86,88.1-181.19,57.77,156.16-70.25,156.16-70.25c-40.38-46.58-125.81-68.57-125.81-68.57-130.56-16.81-145.39,151.72-145.39,151.72s-60.22,29.25-147.18,23h0s-16.75-2.69-42.61-1.46l6.6,14.68c4.48-.57,8.88-1,13.19-1.14h.26c2.73,0,6.6,0,11.35,0h0c10.79.53,18.64.64,24.19.45h0c33.6,1,78.22,4.25,91.56,13.77a31.5,31.5,0,0,1,5.32-6.17l-5.32,6.17c-42.54,49.35,5,179,50.85,242.57s51.86,24.15,67-28-28.88-127.28-26.81-156.27,30-.53,47.37,47.75-18.77,92.61,8,171.23,194.37,72.26,194.37,72.26c-39.57-44.78-52.84-151-36.5-162.7s76.71,127.35,91.78,146.47S2261.59,1700.6,2337.25,1638.51Z"/></g><g id="man"><path class="cls-9" d="M1174.23,1172.67c-3.59,9.66-9.82,20.87-16.35,23.65-7.41,3.16-10.5,7.63-10.5,7.63l-6-3.47-7.14-4.16s.17-.79.52-2.08.88-3.08,1.6-5.07a6.9,6.9,0,0,0,.85-6.35c-1.34-3.54-1.07-9,1.22-12.33s4.5-11.54,5.88-11.29c3.34.57-1.64,11.85-.21,13.94a2.47,2.47,0,0,0,3.21,1.1l.05,0c9.37-4.12,20.74-26.34,25.77-23.34C1175,1152,1175.76,1168.56,1174.23,1172.67Z"/><path class="cls-10" d="M1141.81,1186.12l11.74,8.25a1.83,1.83,0,0,0,2.56-.45l30.08-42.79a1.85,1.85,0,0,0-.45-2.57l-11.74-8.25a1.85,1.85,0,0,0-2.57.45l-30.07,42.79A1.85,1.85,0,0,0,1141.81,1186.12Z"/><path class="cls-11" d="M1152.55,1193.67l6.89,4.84a1.4,1.4,0,0,0,2-.34l30.58-43.51a1.41,1.41,0,0,0-.34-2l-6.88-4.84a1.4,1.4,0,0,0-2,.35l-30.59,43.51A1.41,1.41,0,0,0,1152.55,1193.67Z"/><path class="cls-12" d="M973.38,1124.71s59.74,104.2,81.41,123.37l79.47-59.24s11.53,3.53,16.58,15.11c0,0-48.26,98.32-95.77,102.49s-114.2-117.85-114.2-117.85Z"/><path class="cls-11" d="M838.19,1833.42H803.67c-4.35-2.36-8.22-7.76-9.44-15.82-1.69-11.12-14.15-17.18-16.85-26.28s11.12-21.89,11.12-21.89l2.31-3,2.4-3.09,22.91,5.39s.57,5.46.92,12.41a158.78,158.78,0,0,1,.1,15.89c-.68,12.13,3.39,25.19,14.16,27.55C839.27,1826.34,838.92,1831.07,838.19,1833.42Z"/><path class="cls-11" d="M1038.51,1833.42H959.57c-3.8-4.63-2.4-21.73-1.82-27.31.12-1.13.2-1.78.2-1.78s26.95-21.56,30.66-5c.11.51.25,1,.4,1.52,4.66,15.44,25.58,22.46,37.67,24.41C1034.53,1826.49,1037.44,1830.57,1038.51,1833.42Z"/><path class="cls-13" d="M1023.47,1392.79s-4.09,51.07-8.91,112.46c-6.53,83.38-14.4,185.81-15.17,205.22-1.35,33.69-6.75,87.59-6.75,87.59s-12.79,12.8-38.4,7.41c0,0-22.82-76.94-29.34-158.35-.1-1.33-.2-2.68-.3-4-6.07-82.87-15.5-257.38-15.5-257.38Z"/><path class="cls-14" d="M1023.47,1392.79s-4.09,51.07-8.91,112.46L924.9,1647.12c-.1-1.33-.2-2.68-.3-4-6.07-82.87-15.5-257.38-15.5-257.38Z"/><path class="cls-13" d="M1004.78,1398.86S931,1583.8,882.49,1670.72s-63.67,111.17-63.67,111.17-27.79-11.12-30.32-18.7c0,0,18.55-167.79,51-208.69,18.35-23.12,39.92-92.48,40.93-116.73s6.57-72.26,6.57-72.26Z"/><path class="cls-9" d="M986.41,1129.24c-28.83,9.1-78.71-15.45-78.71-15.45s26.58-20,25.19-61.43l22.29,18,15.14,12.2a180.24,180.24,0,0,1-1.72,19.8c-.43,3.32,3.31,10.63,6.55,14.75C983.89,1128.15,986.41,1129.24,986.41,1129.24Z"/><path class="cls-15" d="M970.32,1082.52a180.24,180.24,0,0,1-1.72,19.8c-16.78-2.87-35.81-30-35.81-30a53.51,53.51,0,0,1,22.39-2Z"/><path class="cls-9" d="M979.14,1081.84s-47.62,7.91-52.09-21.82-13.63-48.73,16.58-55,37.85,4.14,41.75,13.71S991.41,1079,979.14,1081.84Z"/><path class="cls-4" d="M1026.65,1397.05a4.68,4.68,0,0,1-3,1.15c-10.83-.15-42.4,5.87-69.11,3.12-22.52-2.16-42.45-8.83-63.86-18.42-2.84-1.28-9.38-4.77-9.24-8,.1-3.48.45-8.52.88-14.88,1.52-22.09,4.16-60.09,1.58-103.93-.46-8.17-.71-16.27-.73-24.24-.23-59.42,11.56-111.68,35.23-129.37,2-1.45,14.44,4.62,25.85,10.25a47.16,47.16,0,0,0,31,3.75l10,8.81c12.13,11.26,25.41,26.56,31.19,49.8,4.91,19.78,7.79,55.44,9.38,92.4.72,16.75,1.3,33.64,1.45,49.67v.57c.14,1.59.14,3.33.14,4.92C1028,1363.84,1027.37,1396.46,1026.65,1397.05Z"/><path class="cls-12" d="M882.29,1360.07c1.52-22.09,4.16-60.09,1.58-103.93-.46-8.17-.71-16.27-.73-24.24,9.86-23.92,17.92-41.27,17.92-41.27h24.86S944.14,1315.11,882.29,1360.07Z"/><path class="cls-11" d="M755,1501.16l106,15.11a25.43,25.43,0,0,0,28.67-21.52l6.54-45.94a25.4,25.4,0,0,0-21.51-28.66l-106-15.11A25.42,25.42,0,0,0,740,1426.55l-6.54,46A25.41,25.41,0,0,0,755,1501.16Z"/><path class="cls-10" d="M880.66,1433.84h0a25.5,25.5,0,0,0-17.57-15.34h0c-.8-.19-1.61-.36-2.45-.48l-21.11-3,1.41-9.91a8.42,8.42,0,0,0-7.12-9.5l-5.51-.78-22.17-3.16-4-.57a8.4,8.4,0,0,0-9.49,7.12l-1.41,9.92-36.44-5.19A25.51,25.51,0,0,0,726,1424.53L719.39,1471A25.51,25.51,0,0,0,741,1499.78l105.83,15.08a25,25,0,0,0,5.52.18h0a25.05,25.05,0,0,0,8.26-2.09,25.49,25.49,0,0,0,15-19.69l6.62-46.47A25.19,25.19,0,0,0,880.66,1433.84ZM797.84,1399a3.14,3.14,0,0,1,2.61-2.65,3,3,0,0,1,.94,0l4.71.67,17.44,2.49,9.51,1.35a3.14,3.14,0,0,1,2.66,3.54l-1.41,9.92-37.87-5.4Z"/><path class="cls-9" d="M835.57,1364.35s-5.56,7.42-5.79,10.38c-1.49,20.09,7.69,22.87-16.08,34,0,0-10.14,3.87-10.31-4s7-8,5.72-19c-1.52-12.72-1.37-12.84,7-19.48l5.52-9.14Z"/><path class="cls-4" d="M821.41,1370a81.6,81.6,0,0,0,18.66,1s26.58-82.09,30-89.59S949,1185.21,949,1185.21l-31.46-78.73s-81.69,136.44-90,155.61c-13.71,31.68-18.46,102.71-18.46,102.71A34.09,34.09,0,0,0,821.41,1370Z"/><path class="cls-10" d="M927,1057.16s4.88-.82,4.1-7.55-.78-15.53,4.69-13.89,5.74,6,8,3.46,2.29-13.33,18.58-14.08,22.9,4.91,30.47,1.58,8-14.79,8-14.79-2.15,4.1-5.41,5.4c0,0,12.64-17.28-2-29.13s-29.54-4.09-38-3.58c-18.65,1.13-30.7,2.25-36.79,14.5S915,1045.36,927,1057.16Z"/><path class="cls-9" d="M826.79,1373.18s5.36,5.59,5.7,7.92c1.09,7.46,3.58,10.69,2.33,11.5-2.6,1.69-6-3.84-7.67-8.8S826.79,1373.18,826.79,1373.18Z"/></g><rect class="cls-16" x="1239.24" y="717.46" width="635.1" height="1107.44" rx="58.87"/><path class="cls-10" d="M1815.47,1832.29H1298.1a66.33,66.33,0,0,1-66.25-66.26V776.33a66.33,66.33,0,0,1,66.25-66.25h517.37a66.33,66.33,0,0,1,66.25,66.25V1766A66.33,66.33,0,0,1,1815.47,1832.29ZM1298.1,724.85a51.55,51.55,0,0,0-51.48,51.48V1766a51.54,51.54,0,0,0,51.48,51.48h517.37A51.54,51.54,0,0,0,1867,1766V776.33a51.55,51.55,0,0,0-51.48-51.48Z"/><g class="cls-17"><rect class="cls-1" x="1347.93" y="1008.87" width="417.72" height="417.72"/></g><rect class="cls-10" x="1389.8" y="1382.75" width="16.6" height="16.6"/><rect class="cls-10" x="1406.4" y="1382.75" width="16.6" height="16.6"/><rect class="cls-10" x="1423" y="1382.75" width="16.6" height="16.6"/><rect class="cls-10" x="1439.6" y="1382.75" width="16.6" height="16.6"/><rect class="cls-10" x="1456.2" y="1382.75" width="16.6" height="16.6"/><rect class="cls-10" x="1489.4" y="1382.75" width="16.6" height="16.6"/><rect class="cls-10" x="1506" y="1382.75" width="16.6" height="16.6"/><rect class="cls-10" x="1555.8" y="1382.75" width="16.6" height="16.6"/><rect class="cls-10" x="1589" y="1382.75" width="17.58" height="16.6"/><rect class="cls-10" x="1606.59" y="1382.75" width="16.6" height="16.6"/><rect class="cls-10" x="1639.79" y="1382.75" width="16.6" height="16.6"/><rect class="cls-10" x="1656.39" y="1382.75" width="16.6" height="16.6"/><rect class="cls-10" x="1672.99" y="1382.75" width="16.6" height="16.6"/><rect class="cls-10" x="1689.59" y="1382.75" width="16.6" height="16.6"/><rect class="cls-10" x="1706.19" y="1382.75" width="16.6" height="16.6"/><rect class="cls-10" x="1722.79" y="1382.75" width="17.58" height="16.6"/><rect class="cls-10" x="1373.2" y="1382.75" width="16.6" height="16.6"/><rect class="cls-10" x="1456.2" y="1366.15" width="16.6" height="16.6"/><rect class="cls-10" x="1506" y="1366.15" width="16.6" height="16.6"/><rect class="cls-10" x="1539.2" y="1366.15" width="16.6" height="16.6"/><rect class="cls-10" x="1555.8" y="1366.15" width="16.6" height="16.6"/><rect class="cls-10" x="1572.4" y="1366.15" width="16.6" height="16.6"/><rect class="cls-10" x="1589" y="1366.15" width="17.58" height="16.6"/><rect class="cls-10" x="1639.79" y="1366.15" width="16.6" height="16.6"/><rect class="cls-10" x="1722.79" y="1366.15" width="17.58" height="16.6"/><rect class="cls-10" x="1373.2" y="1366.15" width="16.6" height="16.6"/><rect class="cls-10" x="1406.4" y="1349.55" width="16.6" height="16.6"/><rect class="cls-10" x="1423" y="1349.55" width="16.6" height="16.6"/><rect class="cls-10" x="1456.2" y="1349.55" width="16.6" height="16.6"/><rect class="cls-10" x="1489.4" y="1349.55" width="16.6" height="16.6"/><rect class="cls-10" x="1506" y="1349.55" width="16.6" height="16.6"/><rect class="cls-10" x="1522.6" y="1349.55" width="16.6" height="16.6"/><rect class="cls-10" x="1555.8" y="1349.55" width="16.6" height="16.6"/><rect class="cls-10" x="1572.4" y="1349.55" width="16.6" height="16.6"/><rect class="cls-10" x="1589" y="1349.55" width="17.58" height="16.6"/><rect class="cls-10" x="1606.59" y="1349.55" width="16.6" height="16.6"/><rect class="cls-10" x="1639.79" y="1349.55" width="16.6" height="16.6"/><rect class="cls-10" x="1672.99" y="1349.55" width="16.6" height="16.6"/><rect class="cls-10" x="1689.59" y="1349.55" width="16.6" height="16.6"/><rect class="cls-10" x="1722.79" y="1349.55" width="17.58" height="16.6"/><rect class="cls-10" x="1373.2" y="1349.55" width="16.6" height="16.6"/><rect class="cls-10" x="1406.4" y="1332.95" width="16.6" height="16.6"/><rect class="cls-10" x="1423" y="1332.95" width="16.6" height="16.6"/><rect class="cls-10" x="1456.2" y="1332.95" width="16.6" height="16.6"/><rect class="cls-10" x="1489.4" y="1332.95" width="16.6" height="16.6"/><rect class="cls-10" x="1522.6" y="1332.95" width="16.6" height="16.6"/><rect class="cls-10" x="1555.8" y="1332.95" width="16.6" height="16.6"/><rect class="cls-10" x="1639.79" y="1332.95" width="16.6" height="16.6"/><rect class="cls-10" x="1672.99" y="1332.95" width="16.6" height="16.6"/><rect class="cls-10" x="1689.59" y="1332.95" width="16.6" height="16.6"/><rect class="cls-10" x="1722.79" y="1332.95" width="17.58" height="16.6"/><rect class="cls-10" x="1373.2" y="1332.95" width="16.6" height="16.6"/><rect class="cls-10" x="1456.2" y="1316.35" width="16.6" height="16.6"/><rect class="cls-10" x="1489.4" y="1316.35" width="16.6" height="16.6"/><rect class="cls-10" x="1506" y="1316.35" width="16.6" height="16.6"/><rect class="cls-10" x="1522.6" y="1316.35" width="16.6" height="16.6"/><rect class="cls-10" x="1555.8" y="1316.35" width="16.6" height="16.6"/><rect class="cls-10" x="1572.4" y="1316.35" width="16.6" height="16.6"/><rect class="cls-10" x="1606.59" y="1316.35" width="16.6" height="16.6"/><rect class="cls-10" x="1639.79" y="1316.35" width="16.6" height="16.6"/><rect class="cls-10" x="1722.79" y="1316.35" width="17.58" height="16.6"/><rect class="cls-10" x="1373.2" y="1316.35" width="16.6" height="16.6"/><rect class="cls-10" x="1389.8" y="1299.75" width="16.6" height="16.6"/><rect class="cls-10" x="1406.4" y="1299.75" width="16.6" height="16.6"/><rect class="cls-10" x="1423" y="1299.75" width="16.6" height="16.6"/><rect class="cls-10" x="1439.6" y="1299.75" width="16.6" height="16.6"/><rect class="cls-10" x="1456.2" y="1299.75" width="16.6" height="16.6"/><rect class="cls-10" x="1489.4" y="1299.75" width="16.6" height="16.6"/><rect class="cls-10" x="1522.6" y="1299.75" width="16.6" height="16.6"/><rect class="cls-10" x="1539.2" y="1299.75" width="16.6" height="16.6"/><rect class="cls-10" x="1572.4" y="1299.75" width="16.6" height="16.6"/><rect class="cls-10" x="1639.79" y="1299.75" width="16.6" height="16.6"/><rect class="cls-10" x="1656.39" y="1299.75" width="16.6" height="16.6"/><rect class="cls-10" x="1672.99" y="1299.75" width="16.6" height="16.6"/><rect class="cls-10" x="1689.59" y="1299.75" width="16.6" height="16.6"/><rect class="cls-10" x="1706.19" y="1299.75" width="16.6" height="16.6"/><rect class="cls-10" x="1722.79" y="1299.75" width="17.58" height="16.6"/><rect class="cls-10" x="1373.2" y="1299.75" width="16.6" height="16.6"/><rect class="cls-10" x="1539.2" y="1283.15" width="16.6" height="16.6"/><rect class="cls-10" x="1555.8" y="1283.15" width="16.6" height="16.6"/><rect class="cls-10" x="1572.4" y="1283.15" width="16.6" height="16.6"/><rect class="cls-10" x="1606.59" y="1283.15" width="16.6" height="16.6"/><rect class="cls-10" x="1389.8" y="1266.55" width="16.6" height="16.6"/><rect class="cls-10" x="1406.4" y="1266.55" width="16.6" height="16.6"/><rect class="cls-10" x="1423" y="1266.55" width="16.6" height="16.6"/><rect class="cls-10" x="1439.6" y="1266.55" width="16.6" height="16.6"/><rect class="cls-10" x="1489.4" y="1266.55" width="16.6" height="16.6"/><rect class="cls-10" x="1506" y="1266.55" width="16.6" height="16.6"/><rect class="cls-10" x="1522.6" y="1266.55" width="16.6" height="16.6"/><rect class="cls-10" x="1555.8" y="1266.55" width="16.6" height="16.6"/><rect class="cls-10" x="1572.4" y="1266.55" width="16.6" height="16.6"/><rect class="cls-10" x="1589" y="1266.55" width="17.58" height="16.6"/><rect class="cls-10" x="1606.59" y="1266.55" width="16.6" height="16.6"/><rect class="cls-10" x="1623.19" y="1266.55" width="16.6" height="16.6"/><rect class="cls-10" x="1639.79" y="1266.55" width="16.6" height="16.6"/><rect class="cls-10" x="1656.39" y="1266.55" width="16.6" height="16.6"/><rect class="cls-10" x="1672.99" y="1266.55" width="16.6" height="16.6"/><rect class="cls-10" x="1706.19" y="1266.55" width="16.6" height="16.6"/><rect class="cls-10" x="1722.79" y="1266.55" width="17.58" height="16.6"/><rect class="cls-10" x="1406.4" y="1249.95" width="16.6" height="16.6"/><rect class="cls-10" x="1423" y="1249.95" width="16.6" height="16.6"/><rect class="cls-10" x="1472.8" y="1249.95" width="16.6" height="16.6"/><rect class="cls-10" x="1489.4" y="1249.95" width="16.6" height="16.6"/><rect class="cls-10" x="1522.6" y="1249.95" width="16.6" height="16.6"/><rect class="cls-10" x="1572.4" y="1249.95" width="16.6" height="16.6"/><rect class="cls-10" x="1606.59" y="1249.95" width="16.6" height="16.6"/><rect class="cls-10" x="1623.19" y="1249.95" width="16.6" height="16.6"/><rect class="cls-10" x="1656.39" y="1249.95" width="16.6" height="16.6"/><rect class="cls-10" x="1672.99" y="1249.95" width="16.6" height="16.6"/><rect class="cls-10" x="1389.8" y="1233.35" width="16.6" height="16.6"/><rect class="cls-10" x="1423" y="1233.35" width="16.6" height="16.6"/><rect class="cls-10" x="1439.6" y="1233.35" width="16.6" height="16.6"/><rect class="cls-10" x="1456.2" y="1233.35" width="16.6" height="16.6"/><rect class="cls-10" x="1472.8" y="1233.35" width="16.6" height="16.6"/><rect class="cls-10" x="1506" y="1233.35" width="16.6" height="16.6"/><rect class="cls-10" x="1522.6" y="1233.35" width="16.6" height="16.6"/><rect class="cls-10" x="1539.2" y="1233.35" width="16.6" height="16.6"/><rect class="cls-10" x="1555.8" y="1233.35" width="16.6" height="16.6"/><rect class="cls-10" x="1572.4" y="1233.35" width="16.6" height="16.6"/><rect class="cls-10" x="1589" y="1233.35" width="17.58" height="16.6"/><rect class="cls-10" x="1672.99" y="1233.35" width="16.6" height="16.6"/><rect class="cls-10" x="1689.59" y="1233.35" width="16.6" height="16.6"/><rect class="cls-10" x="1722.79" y="1233.35" width="17.58" height="16.6"/><rect class="cls-10" x="1373.2" y="1233.35" width="16.6" height="16.6"/><rect class="cls-10" x="1389.8" y="1216.75" width="16.6" height="16.6"/><rect class="cls-10" x="1406.4" y="1216.75" width="16.6" height="16.6"/><rect class="cls-10" x="1423" y="1216.75" width="16.6" height="16.6"/><rect class="cls-10" x="1489.4" y="1216.75" width="16.6" height="16.6"/><rect class="cls-10" x="1506" y="1216.75" width="16.6" height="16.6"/><rect class="cls-10" x="1572.4" y="1216.75" width="16.6" height="16.6"/><rect class="cls-10" x="1623.19" y="1216.75" width="16.6" height="16.6"/><rect class="cls-10" x="1639.79" y="1216.75" width="16.6" height="16.6"/><rect class="cls-10" x="1672.99" y="1216.75" width="16.6" height="16.6"/><rect class="cls-10" x="1689.59" y="1216.75" width="16.6" height="16.6"/><rect class="cls-10" x="1706.19" y="1216.75" width="16.6" height="16.6"/><rect class="cls-10" x="1722.79" y="1216.75" width="17.58" height="16.6"/><rect class="cls-10" x="1373.2" y="1216.75" width="16.6" height="16.6"/><rect class="cls-10" x="1423" y="1200.15" width="16.6" height="16.6"/><rect class="cls-10" x="1439.6" y="1200.15" width="16.6" height="16.6"/><rect class="cls-10" x="1456.2" y="1200.15" width="16.6" height="16.6"/><rect class="cls-10" x="1472.8" y="1200.15" width="16.6" height="16.6"/><rect class="cls-10" x="1489.4" y="1200.15" width="16.6" height="16.6"/><rect class="cls-10" x="1506" y="1200.15" width="16.6" height="16.6"/><rect class="cls-10" x="1555.8" y="1200.15" width="16.6" height="16.6"/><rect class="cls-10" x="1606.59" y="1200.15" width="16.6" height="16.6"/><rect class="cls-10" x="1623.19" y="1200.15" width="16.6" height="16.6"/><rect class="cls-10" x="1689.59" y="1200.15" width="16.6" height="16.6"/><rect class="cls-10" x="1373.2" y="1200.15" width="16.6" height="16.6"/><rect class="cls-10" x="1389.8" y="1183.55" width="16.6" height="16.6"/><rect class="cls-10" x="1406.4" y="1183.55" width="16.6" height="16.6"/><rect class="cls-10" x="1423" y="1183.55" width="16.6" height="16.6"/><rect class="cls-10" x="1439.6" y="1183.55" width="16.6" height="16.6"/><rect class="cls-10" x="1472.8" y="1183.55" width="16.6" height="16.6"/><rect class="cls-10" x="1506" y="1183.55" width="16.6" height="16.6"/><rect class="cls-10" x="1522.6" y="1183.55" width="16.6" height="16.6"/><rect class="cls-10" x="1555.8" y="1183.55" width="16.6" height="16.6"/><rect class="cls-10" x="1572.4" y="1183.55" width="16.6" height="16.6"/><rect class="cls-10" x="1589" y="1183.55" width="17.58" height="16.6"/><rect class="cls-10" x="1606.59" y="1183.55" width="16.6" height="16.6"/><rect class="cls-10" x="1639.79" y="1183.55" width="16.6" height="16.6"/><rect class="cls-10" x="1656.39" y="1183.55" width="16.6" height="16.6"/><rect class="cls-10" x="1672.99" y="1183.55" width="16.6" height="16.6"/><rect class="cls-10" x="1689.59" y="1183.55" width="16.6" height="16.6"/><rect class="cls-10" x="1722.79" y="1183.55" width="17.58" height="16.6"/><rect class="cls-10" x="1389.8" y="1166.95" width="16.6" height="16.6"/><rect class="cls-10" x="1423" y="1166.95" width="16.6" height="16.6"/><rect class="cls-10" x="1456.2" y="1166.95" width="16.6" height="16.6"/><rect class="cls-10" x="1472.8" y="1166.95" width="16.6" height="16.6"/><rect class="cls-10" x="1522.6" y="1166.95" width="16.6" height="16.6"/><rect class="cls-10" x="1539.2" y="1166.95" width="16.6" height="16.6"/><rect class="cls-10" x="1555.8" y="1166.95" width="16.6" height="16.6"/><rect class="cls-10" x="1589" y="1166.95" width="17.58" height="16.6"/><rect class="cls-10" x="1606.59" y="1166.95" width="16.6" height="16.6"/><rect class="cls-10" x="1623.19" y="1166.95" width="16.6" height="16.6"/><rect class="cls-10" x="1656.39" y="1166.95" width="16.6" height="16.6"/><rect class="cls-10" x="1689.59" y="1166.95" width="16.6" height="16.6"/><rect class="cls-10" x="1706.19" y="1166.95" width="16.6" height="16.6"/><rect class="cls-10" x="1722.79" y="1166.95" width="17.58" height="16.6"/><rect class="cls-10" x="1373.2" y="1166.95" width="16.6" height="16.6"/><rect class="cls-10" x="1389.8" y="1150.35" width="16.6" height="16.6"/><rect class="cls-10" x="1456.2" y="1150.35" width="16.6" height="16.6"/><rect class="cls-10" x="1472.8" y="1150.35" width="16.6" height="16.6"/><rect class="cls-10" x="1506" y="1150.35" width="16.6" height="16.6"/><rect class="cls-10" x="1522.6" y="1150.35" width="16.6" height="16.6"/><rect class="cls-10" x="1555.8" y="1150.35" width="16.6" height="16.6"/><rect class="cls-10" x="1572.4" y="1150.35" width="16.6" height="16.6"/><rect class="cls-10" x="1606.59" y="1150.35" width="16.6" height="16.6"/><rect class="cls-10" x="1623.19" y="1150.35" width="16.6" height="16.6"/><rect class="cls-10" x="1639.79" y="1150.35" width="16.6" height="16.6"/><rect class="cls-10" x="1656.39" y="1150.35" width="16.6" height="16.6"/><rect class="cls-10" x="1672.99" y="1150.35" width="16.6" height="16.6"/><rect class="cls-10" x="1689.59" y="1150.35" width="16.6" height="16.6"/><rect class="cls-10" x="1373.2" y="1150.35" width="16.6" height="16.6"/><rect class="cls-10" x="1506" y="1133.75" width="16.6" height="16.6"/><rect class="cls-10" x="1539.2" y="1133.75" width="16.6" height="16.6"/><rect class="cls-10" x="1555.8" y="1133.75" width="16.6" height="16.6"/><rect class="cls-10" x="1589" y="1133.75" width="17.58" height="16.6"/><rect class="cls-10" x="1606.59" y="1133.75" width="16.6" height="16.6"/><rect class="cls-10" x="1623.19" y="1133.75" width="16.6" height="16.6"/><rect class="cls-10" x="1389.8" y="1117.15" width="16.6" height="16.6"/><rect class="cls-10" x="1406.4" y="1117.15" width="16.6" height="16.6"/><rect class="cls-10" x="1423" y="1117.15" width="16.6" height="16.6"/><rect class="cls-10" x="1439.6" y="1117.15" width="16.6" height="16.6"/><rect class="cls-10" x="1456.2" y="1117.15" width="16.6" height="16.6"/><rect class="cls-10" x="1489.4" y="1117.15" width="16.6" height="16.6"/><rect class="cls-10" x="1506" y="1117.15" width="16.6" height="16.6"/><rect class="cls-10" x="1555.8" y="1117.15" width="16.6" height="16.6"/><rect class="cls-10" x="1623.19" y="1117.15" width="16.6" height="16.6"/><rect class="cls-10" x="1639.79" y="1117.15" width="16.6" height="16.6"/><rect class="cls-10" x="1672.99" y="1117.15" width="16.6" height="16.6"/><rect class="cls-10" x="1722.79" y="1117.15" width="17.58" height="16.6"/><rect class="cls-10" x="1373.2" y="1117.15" width="16.6" height="16.6"/><rect class="cls-10" x="1456.2" y="1100.55" width="16.6" height="16.6"/><rect class="cls-10" x="1589" y="1100.55" width="17.58" height="16.6"/><rect class="cls-10" x="1606.59" y="1100.55" width="16.6" height="16.6"/><rect class="cls-10" x="1639.79" y="1100.55" width="16.6" height="16.6"/><rect class="cls-10" x="1656.39" y="1100.55" width="16.6" height="16.6"/><rect class="cls-10" x="1689.59" y="1100.55" width="16.6" height="16.6"/><rect class="cls-10" x="1706.19" y="1100.55" width="16.6" height="16.6"/><rect class="cls-10" x="1722.79" y="1100.55" width="17.58" height="16.6"/><rect class="cls-10" x="1373.2" y="1100.55" width="16.6" height="16.6"/><rect class="cls-10" x="1406.4" y="1083.95" width="16.6" height="16.6"/><rect class="cls-10" x="1423" y="1083.95" width="16.6" height="16.6"/><rect class="cls-10" x="1456.2" y="1083.95" width="16.6" height="16.6"/><rect class="cls-10" x="1489.4" y="1083.95" width="16.6" height="16.6"/><rect class="cls-10" x="1506" y="1083.95" width="16.6" height="16.6"/><rect class="cls-10" x="1539.2" y="1083.95" width="16.6" height="16.6"/><rect class="cls-10" x="1555.8" y="1083.95" width="16.6" height="16.6"/><rect class="cls-10" x="1589" y="1083.95" width="17.58" height="16.6"/><rect class="cls-10" x="1656.39" y="1083.95" width="16.6" height="16.6"/><rect class="cls-10" x="1672.99" y="1083.95" width="16.6" height="16.6"/><rect class="cls-10" x="1689.59" y="1083.95" width="16.6" height="16.6"/><rect class="cls-10" x="1373.2" y="1083.95" width="16.6" height="16.6"/><rect class="cls-10" x="1406.4" y="1067.34" width="16.6" height="16.6"/><rect class="cls-10" x="1423" y="1067.34" width="16.6" height="16.6"/><rect class="cls-10" x="1456.2" y="1067.34" width="16.6" height="16.6"/><rect class="cls-10" x="1489.4" y="1067.34" width="16.6" height="16.6"/><rect class="cls-10" x="1522.6" y="1067.34" width="16.6" height="16.6"/><rect class="cls-10" x="1539.2" y="1067.34" width="16.6" height="16.6"/><rect class="cls-10" x="1555.8" y="1067.34" width="16.6" height="16.6"/><rect class="cls-10" x="1572.4" y="1067.34" width="16.6" height="16.6"/><rect class="cls-10" x="1589" y="1067.34" width="17.58" height="16.6"/><rect class="cls-10" x="1623.19" y="1067.34" width="16.6" height="16.6"/><rect class="cls-10" x="1639.79" y="1067.34" width="16.6" height="16.6"/><rect class="cls-10" x="1656.39" y="1067.34" width="16.6" height="16.6"/><rect class="cls-10" x="1689.59" y="1067.34" width="16.6" height="16.6"/><rect class="cls-10" x="1706.19" y="1067.34" width="16.6" height="16.6"/><rect class="cls-10" x="1722.79" y="1067.34" width="17.58" height="16.6"/><rect class="cls-10" x="1373.2" y="1067.34" width="16.6" height="16.6"/><rect class="cls-10" x="1456.2" y="1050.74" width="16.6" height="16.6"/><rect class="cls-10" x="1522.6" y="1050.74" width="16.6" height="16.6"/><rect class="cls-10" x="1539.2" y="1050.74" width="16.6" height="16.6"/><rect class="cls-10" x="1572.4" y="1050.74" width="16.6" height="16.6"/><rect class="cls-10" x="1589" y="1050.74" width="17.58" height="16.6"/><rect class="cls-10" x="1606.59" y="1050.74" width="16.6" height="16.6"/><rect class="cls-10" x="1623.19" y="1050.74" width="16.6" height="16.6"/><rect class="cls-10" x="1706.19" y="1050.74" width="16.6" height="16.6"/><rect class="cls-10" x="1373.2" y="1050.74" width="16.6" height="16.6"/><rect class="cls-10" x="1389.8" y="1034.14" width="16.6" height="16.6"/><rect class="cls-10" x="1406.4" y="1034.14" width="16.6" height="16.6"/><rect class="cls-10" x="1423" y="1034.14" width="16.6" height="16.6"/><rect class="cls-10" x="1439.6" y="1034.14" width="16.6" height="16.6"/><rect class="cls-10" x="1456.2" y="1034.14" width="16.6" height="16.6"/><rect class="cls-10" x="1489.4" y="1034.14" width="16.6" height="16.6"/><rect class="cls-10" x="1506" y="1034.14" width="16.6" height="16.6"/><rect class="cls-10" x="1589" y="1034.14" width="17.58" height="16.6"/><rect class="cls-10" x="1623.19" y="1034.14" width="16.6" height="16.6"/><rect class="cls-10" x="1656.39" y="1034.14" width="16.6" height="16.6"/><rect class="cls-10" x="1672.99" y="1034.14" width="16.6" height="16.6"/><rect class="cls-10" x="1722.79" y="1034.14" width="17.58" height="16.6"/><rect class="cls-10" x="1373.2" y="1034.14" width="16.6" height="16.6"/><g class="cls-18"><path class="cls-1" d="M1317.71,1066.84a5.91,5.91,0,0,1-5.9-5.91V980.42a5.9,5.9,0,0,1,5.9-5.9H1399a5.9,5.9,0,0,1,0,11.8h-75.33v74.61A5.91,5.91,0,0,1,1317.71,1066.84Z"/><path class="cls-1" d="M1795.86,1067.2a5.91,5.91,0,0,1-5.91-5.91V986h-74.61a5.91,5.91,0,0,1,0-11.81h80.52a5.91,5.91,0,0,1,5.9,5.91v81.23A5.91,5.91,0,0,1,1795.86,1067.2Z"/></g><g class="cls-18"><path class="cls-1" d="M1795.86,1471.8h-81.24a5.91,5.91,0,0,1,0-11.81H1790v-74.61a5.91,5.91,0,1,1,11.81,0v80.51A5.91,5.91,0,0,1,1795.86,1471.8Z"/><path class="cls-1" d="M1398.23,1472.16h-80.52a5.91,5.91,0,0,1-5.9-5.91V1385a5.91,5.91,0,1,1,11.81,0v75.33h74.61a5.91,5.91,0,0,1,0,11.81Z"/></g><rect class="cls-1" x="1347.93" y="1572.62" width="417.71" height="33.67" rx="11.19"/><path class="cls-14" d="M1639.79,1572.62v33.67H1359.12a11.22,11.22,0,0,1-11.19-11.19v-11.29a11.22,11.22,0,0,1,11.19-11.19Z"/><polygon class="cls-13" points="1581.31 1572.62 1550.25 1606.29 1492.15 1606.29 1523.2 1572.62 1581.31 1572.62"/><polygon class="cls-13" points="1639.79 1572.62 1639.79 1606.29 1585.93 1606.29 1616.99 1572.62 1639.79 1572.62"/><polygon class="cls-13" points="1487.75 1572.62 1456.7 1606.29 1398.6 1606.29 1429.65 1572.62 1487.75 1572.62"/><path class="cls-13" d="M1394.2,1572.62l-31,33.67h-4.26a11.23,11.23,0,0,1-11.2-11.19v-11.29a11.23,11.23,0,0,1,11.2-11.19Z"/><path class="cls-1" d="M1513.94,1553.41l2.21-2.63a9.63,9.63,0,0,0,6.59,2.72c2.27,0,3.7-1,3.7-2.69,0-1.49-.83-2.3-4.71-3.22-4.45-1-7-2.36-7-6.27,0-3.58,3-6,7.13-6a11.54,11.54,0,0,1,7.57,2.62l-2,2.78a9.51,9.51,0,0,0-5.67-2.15c-2.15,0-3.4,1.1-3.4,2.54,0,1.61,1,2.32,5,3.28,4.41,1.07,6.71,2.65,6.71,6.17,0,3.91-3.07,6.24-7.46,6.24A12.91,12.91,0,0,1,1513.94,1553.41Z"/><path class="cls-1" d="M1533.51,1546a10.57,10.57,0,0,1,10.77-10.8,10.9,10.9,0,0,1,8.18,3.25l-2.36,2.71a8.3,8.3,0,0,0-5.85-2.59c-4,0-6.89,3.28-6.89,7.43s2.9,7.43,6.89,7.43c2.57,0,4.21-1,6-2.72l2.36,2.39a10.82,10.82,0,0,1-8.48,3.7A10.52,10.52,0,0,1,1533.51,1546Z"/><path class="cls-1" d="M1563.86,1535.42h3.4l9.18,21h-3.87l-2.12-5h-9.88l-2.14,5h-3.76Zm5.25,12.74-3.61-8.36-3.58,8.36Z"/><path class="cls-1" d="M1580,1535.57h3.4l11.18,14.43v-14.43h3.61v20.88h-3.07l-11.51-14.86v14.86H1580Z"/><g id="girl_2" data-name="girl 2"><path class="cls-11" d="M1870,1388.78c19.26-5.61,41,.83,54.6,15.59,33.63,36.52,8.83,64.67,25.66,90.23,10.17,15.44,18.71,42.49-12.79,58.49-14.57,7.4-58,46.06-66.84,47-90,9.24-91.64-82.09-61.3-108.56C1852,1454.31,1813,1405.4,1870,1388.78Z"/><path class="cls-19" d="M1917.06,1530s82.16,39.81,97.55,39.14,111.59-34.55,111.59-34.55l-2.41,16.31S2050.6,1593,2025,1595.36c-25.19,2.35-111.33-22.61-119.64-27.88S1892.89,1535.32,1917.06,1530Z"/><path class="cls-9" d="M1926.1,1567.53a81.31,81.31,0,0,1-28.5,12.13c-43.94,10.15-60.78-27-67.1-52.47a37.8,37.8,0,0,1,14.88-4.58c3.18-.37,6.52-.62,9.29-.76,4.93-3.78,12.28-19.24,13.91-43.26l2.06.56,34.63,9.48s-1.58,11-2.36,21.41c-.6,8.14-.7,15.92.84,17.82,2.71.59,4.33,1,4.33,1l0,0A223.71,223.71,0,0,1,1926.1,1567.53Z"/><path class="cls-19" d="M1905.27,1488.63s-1.59,11-2.36,21.41c-19.62-2-28.72-20.64-32.27-30.88Z"/><path class="cls-9" d="M1911.13,1499s-46.56-2.56-44.52-31.54-2.58-48.82,27.23-48.4,34.81,11.88,36.48,21.71S1923.3,1498.89,1911.13,1499Z"/><path class="cls-11" d="M1930.09,1424.53c-6.56-9.23-12.13-7.71-15.36-5.31-24.42-15.8-42.29,3.69-42.29,3.69a55.51,55.51,0,0,1-20.44,31.4s8.25,6.6,28,2.22c25.27-5.6,34-27.52,35.13-30.88,2.66,2.75,6.09,4.5,8.72,10.47,3.12,7.1,5.09,11.22,5.14,22.87C1929,1459,1939.94,1438.37,1930.09,1424.53Z"/><path class="cls-13" d="M1817.23,1662.2c-4.2-21.49-17.91-107.38-4.2-135,4.92-9.92,24.25-10.82,45.45-10,6.59,4.26,31.73,20.35,42,18.35l.58-.14c4.86-1.22,6.7-4.63,2.64-7.58a217.51,217.51,0,0,1,22.35,3.11c7.37,1.39,27.59,13.81,27.59,13.81s-9.17,14.26-23.92,20.5c2.51,22.44-1.22,32.34-24.5,84.16-19.67,43.81,2.65,83.25,2.65,83.25s-115.78,93.09-116.43,45.69C1791,1742.7,1822.61,1689.68,1817.23,1662.2Z"/><path class="cls-12" d="M1913.66,1833.91a21.55,21.55,0,0,0,15.49-9.42l1.79-2.7c13.18-20,18.31-81,48-146.15,7.23-15.85,33.14-18.7,40.21-36.61,0,0,17.4-58.07-33.29-59.78S1850,1740.81,1848.7,1757.94C1847.4,1774.53,1815.19,1845,1913.66,1833.91Z"/><path class="cls-20" d="M2115.14,1833.58H2043s-2.7-11.82,2-19.86c4.19-7.11,2.59-11.16-.52-17a27.51,27.51,0,0,0,12.15,2.35c3.6-.21,7.4-1.89,10.73-3.87,3.11,3.63,16.41,19.1,20.56,22.17C2092.67,1820.8,2113.69,1819.56,2115.14,1833.58Z"/><path class="cls-12" d="M2020.75,1596c4.35,32.57,21.31,135.38,51.24,185.53,9.65,16.17-24.31,25.24-24.49,25.19-4.56-1.19-12.15-8.45-15.64-11.6-24.3-21.9-73.62-83.91-73.62-133.62,0-24.24-.43-70.53,17.2-82.29C1986.29,1572,2019,1583.1,2020.75,1596Z"/><path class="cls-14" d="M1820.07,1567.48s14.64,29.79,83,50.84,29.25-31.84,29.25-31.84l-95.55-33.39Z"/><path class="cls-4" d="M1878.43,1834a53.24,53.24,0,0,0,6-13.63c3.88-13.61,5.26-23.51,12.71-44.71,7.82-22.26,17.1-49.64,28.71-78.13,3.58-8.8,7.38-17.7,11.42-26.58,7.22-15.85,27.09-13.66,34.16-31.58,0,0,27.57-62.1-23.12-63.82s-147,166.14-152.55,182.4C1789.68,1775.73,1767.9,1851,1878.43,1834Z"/><path class="cls-21" d="M2062.18,1833.58H1990s-2.7-11.82,2-19.86c4.19-7.11,2.58-11.16-.52-17a27.48,27.48,0,0,0,12.15,2.35c3.59-.21,7.4-1.89,10.73-3.87,3.11,3.63,16.4,19.1,20.56,22.17C2039.7,1820.8,2060.73,1819.56,2062.18,1833.58Z"/><g class="cls-7"><path class="cls-12" d="M1897.12,1775.65c7.82-22.26,17.1-49.64,28.71-78.13-3-21.59-9.57-40.47-20.56-48.08C1905.27,1649.44,1878.61,1732,1897.12,1775.65Z"/></g><path class="cls-4" d="M1978.63,1593.73c4.35,32.57,10.47,137.68,40.4,187.83,9.64,16.17-24.31,25.24-24.5,25.19-4.55-1.19-12.14-8.45-15.64-11.6-24.29-21.9-73.62-83.91-73.62-133.62,0-24.24,28.45-68.58,46.07-80.35C1962.2,1573.93,1976.91,1580.79,1978.63,1593.73Z"/><path class="cls-22" d="M2134.82,1492.59l-73.89-7.84a4.78,4.78,0,0,0-5,3l-26.43,69.47a4.77,4.77,0,0,0,4.26,6.46l73.32,3a4.79,4.79,0,0,0,4.6-2.93l27-64.57A4.77,4.77,0,0,0,2134.82,1492.59Z"/><path class="cls-23" d="M2141.23,1493.27l-73.88-7.85a4.77,4.77,0,0,0-5,3L2036,1557.93a4.77,4.77,0,0,0,4.26,6.46l73.32,3a4.77,4.77,0,0,0,4.59-2.93l27-64.57A4.76,4.76,0,0,0,2141.23,1493.27Z"/><path class="cls-2" d="M2100.28,1525.7c.9-2.48-.38-4.49-2.86-4.49a7.09,7.09,0,0,0-6.12,4.49c-.9,2.48.37,4.49,2.85,4.49A7.11,7.11,0,0,0,2100.28,1525.7Z"/><path class="cls-2" d="M2139,1499.83a1.49,1.49,0,0,0-1.4-2.21,3.49,3.49,0,0,0-3,2.21,1.5,1.5,0,0,0,1.4,2.21A3.49,3.49,0,0,0,2139,1499.83Z"/><path class="cls-9" d="M1830.5,1527.19s102.4,37.71,117.79,36.93c10-.49,92.61-29.55,92.61-29.55l7.42,14s-80.46,51.71-102.58,51.45c-43.67-.5-117.36-27.31-125.67-32.58S1806.33,1532.52,1830.5,1527.19Z"/><path class="cls-9" d="M2040.9,1534.57s7.42-11.42,14.81-11.76,20.16,5,24.52,5.88,16.8,4.87,13.1,10.92-20.82,7.39-28.21,6-16.8,3-16.8,3Z"/><path class="cls-9" d="M2053.7,1523.16s11.75-5.39,15.11-6.39,2.69,0,1.68,3.19-7,6.23-7,7.23S2053.7,1523.16,2053.7,1523.16Z"/><path class="cls-9" d="M2133.62,1528.52s-4.68-15.44-9.83-10.59c-5.36,5-2.11,10.1-1.45,16.54,1.25,12.31,3.74,11.78,5.32,11.23S2135.37,1534.71,2133.62,1528.52Z"/><path class="cls-9" d="M2133.9,1530.87s2.37,13.15-10.11,20l3.69-9.05Z"/><path class="cls-1" d="M1919.85,1482.3s-4.4-1.74-16.79-.73c0,0,.66,4.83,9.79,5.31C1918,1487.15,1919.85,1482.3,1919.85,1482.3Z"/><path class="cls-13" d="M1883.26,1545.78s-9.16,29-40.62,35.6c0,0-51.94-16-26.08-51.4C1816.56,1530,1842.13,1511,1883.26,1545.78Z"/><path class="cls-9" d="M2133.9,1532.73s2.16-7.23,2.29-8.49,0-1.88-1.14-1-2.81,3.2-2.31,5.39S2133.9,1532.73,2133.9,1532.73Z"/></g><path class="cls-24" d="M1459.11,882.05a7.4,7.4,0,0,0-1.32,7.93l0,0c1.91,5.28,8.23,11.18,15.57,17.08.94.76,1.77,1.44,2.5,2.08l.56.51c.15.12.29.26.43.38,6.85,6.31,4.27,7.76,16.57,20.56,14,14.59,23.67,14.85,26.42,13.52,2.32-1.13-2.4-8.87-7.63-17.56-.25-.42-.5-.85-.76-1.27-.7-1.16-1.39-2.33-2.08-3.49-6.13-10.47-4.56-15.38-3.1-31,1.18-12.66,19.69-70.72,19.69-70.72l-26.87-4.63s-8.09,46.23-17,53.35c-4.77,3.8-10.1,3.84-14.68,6.66q-.5.29-1,.6A35.65,35.65,0,0,0,1459.11,882.05Z"/><path class="cls-11" d="M1459.11,882.05a7.4,7.4,0,0,0-1.32,7.93l0,0c2.34,5.28,8.5,11.15,15.6,17,.92.77,1.74,1.48,2.47,2.14l.56.51c.15.12.29.26.43.38,6.85,6.31,4.27,7.76,16.57,20.56,14,14.59,23.67,14.85,26.42,13.52,2.32-1.13-2.4-8.87-7.63-17.56a59.7,59.7,0,0,1-25-18.42c-8.44-10.77-14.08-24.61-19.82-32.63q-.5.29-1,.6A35.65,35.65,0,0,0,1459.11,882.05Z"/><path class="cls-24" d="M1675.77,865.27c1.66,8.29,13.48,6.91,26.69,3.68s10.07.61,28.87-1.47,24.49-9.09,25.07-11.89c.51-2.48-8.78-3.35-18.74-4.5-1.26-.14-2.51-.3-3.77-.45-11.25-1.41-19.49-8.67-29.71-14.63-9.68-5.65-24.12-28.65-24.12-28.65l-25.78,2S1667.81,830,1673,838.88c3.08,5.25,2.92,12.2,2.53,17.57A33,33,0,0,0,1675.77,865.27Z"/><path class="cls-11" d="M1702.46,869c13.21-3.23,10.07.61,28.87-1.47s24.49-9.09,25.07-11.89c.51-2.48-8.78-3.35-18.74-4.5l-.1.19a53,53,0,0,1-26.92,8.37c-12.75.31-26.26-3.34-35.07-3.2a33,33,0,0,0,.2,8.82C1677.43,873.56,1689.25,872.18,1702.46,869Z"/><path class="cls-14" d="M1577,700.42l-24.1,64.85L1521.41,850a51.1,51.1,0,0,1-16.72-1.53c-7.52-2.18-16.16-7.87-16.16-7.87s8.74-90.92,25-143.11c4.18-13.39,8.86-24.23,14-30.33C1552.85,637.25,1577,700.42,1577,700.42Z"/><path class="cls-13" d="M1552.47,597.43c-15-4.85-56.61.85-99.61,9.05a9.46,9.46,0,0,1-9.87-4.39l-6-10-97.71-7.63s-25.22,57.3-14.49,105c2.63,11.68,16.91,26.8,38.74,28.16,61.2,3.81,102.49-17.44,166-39.78,11-3.88,16.08,20.67,27.56,44.79s108,106.82,108,106.82,14.83.15,21-2.15c6.58-2.47,9-5.68,9-5.68S1588.08,608.92,1552.47,597.43Z"/><path class="cls-11" d="M1433.1,307.6c-12.52-6.57-31.56-7.46-34.66-7.88-37-5-59.31,48.83-60.62,65.13-2.41,30-18.31,34.63-40.68,53.45-44.87,37.73-31.71,81.58-7.18,97.87,14.72,9.77,40.66,0,40.66,0,.37.25,71-39.46,105.75-58.62C1488.53,450.14,1465,324.35,1433.1,307.6Z"/><path class="cls-9" d="M1407.21,441.24c.15.1-17.12,6-28.67.88-10.87-4.8-19.1-22.67-18.94-22.68,5-.23,10.37-4.55,14.55-32.9l2.1.75L1411.64,400s-2.56,11.36-4.22,22.17C1406,431.26,1405.27,440,1407.21,441.24Z"/><path class="cls-15" d="M1411.64,400s-1.77,8.06-3.73,19.08c-20.32-3.66-28.79-20.82-31.66-31.81Z"/><path class="cls-9" d="M1416.91,411.29s-48.41-6.5-43.9-36.58,1.3-51.2,32.4-48.32,35.37,15.26,36.31,25.67S1429.62,412.21,1416.91,411.29Z"/><path class="cls-11" d="M1440,335.56s-31,26.71-52.08,28.87-29.06-4.62-29.06-4.62a82.3,82.3,0,0,0,19.9-27,14.82,14.82,0,0,1,12.22-8.74C1406,322.81,1434.53,322.22,1440,335.56Z"/><path class="cls-11" d="M1420.58,333.17s10.37,10,13.64,17.46c3.15,7.18,4.09,24.34,1.58,31.16,0,0,16.16-31.41,7-46.68C1433.11,318.93,1420.58,333.17,1420.58,333.17Z"/><path class="cls-4" d="M1448,512.56c3.72,87.4-2.16,82.58-11.12,86.83-3.09,1.47-9.84,3.57-19.4,4.2-30,2-82.88-3-84.89-8.51-6.93-19.21-2-25.18-7.82-54.6-.6-3.13-1.35-6.52-2.22-10.21-4.83-20.2-9.52-27.08,7.59-59.54,15.51-29.41,31.63-53.27,33.08-52.41,40.93,24.3,44.23,3.87,44.23,3.87S1446,464.8,1448,512.56Z"/><path class="cls-13" d="M1552.87,765.27,1521.41,850a51.1,51.1,0,0,1-16.72-1.53c-7.52-2.18-16.16-7.87-16.16-7.87s8.74-90.92,25-143.11Z"/><path class="cls-4" d="M1407.42,422.19s42.11,7.14,47.06,25.27l34,124.73s-21.41,3.85-31.3-6-34.42-91.76-34.42-91.76Z"/><path class="cls-12" d="M1417.45,603.59c-30,2-82.88-3-84.89-8.51-6.93-19.21-2-25.18-7.82-54.6l14.49-40.82s-2.39,45.45,11,57.41,54.88,23.07,61.4,33.06C1414.78,594.93,1416.85,599.73,1417.45,603.59Z"/><path class="cls-9" d="M1383,584.48s29.64-6.6,34.43-4,16.47,12.21,17.94,15.55-10.65-2.54-14.59-3.59c-2.55-.69-9.27,1.65-12.6,2.76-14,4.66-22.56,2.26-22.56,2.26Z"/><path class="cls-4" d="M1363.16,418.3s-39.81,2.45-53.59,21.67c-19.4,27.06-57.88,142.37-35.83,157.75,24.84,17.32,113,4.53,113,4.53s2.93-13.72-1.15-20.36-70.45-17.36-73.52-20.42,38.29-59.73,38.29-68.92S1363.16,418.3,1363.16,418.3Z"/><path class="cls-9" d="M1418.88,588.76s6.22,8,8.25,9a6.05,6.05,0,0,0,3.35.72l-4.18-7.54Z"/><path class="cls-9" d="M1417.45,580.51l18.06,8.77a3.2,3.2,0,0,1-3,1.15c-2.23-.1-7.84-2.15-7.84-2.15Z"/><polygon class="cls-10" points="1427.13 610 1570 610 1612.98 503.13 1470.33 503.13 1427.13 610"/><polygon class="cls-10" points="1571.68 605.84 1383.02 605.84 1383.02 610 1570 610 1571.68 605.84"/><path class="cls-2" d="M1533.94,556.57c1.07-3.76-1.1-6.8-4.86-6.8a9.75,9.75,0,0,0-8.75,6.8c-1.08,3.76,1.1,6.8,4.85,6.8A9.75,9.75,0,0,0,1533.94,556.57Z"/><rect class="cls-25" x="441.63" y="1832.29" width="2161.94" height="6.41" rx="2.59"/></svg>